<?xml version="1.0" encoding="UTF-8" standalone="no"?>
<svg
   xmlns:dc="http://purl.org/dc/elements/1.1/"
   xmlns:cc="http://creativecommons.org/ns#"
   xmlns:rdf="http://www.w3.org/1999/02/22-rdf-syntax-ns#"
   xmlns:svg="http://www.w3.org/2000/svg"
   xmlns="http://www.w3.org/2000/svg"
   xmlns:sodipodi="http://sodipodi.sourceforge.net/DTD/sodipodi-0.dtd"
   xmlns:inkscape="http://www.inkscape.org/namespaces/inkscape"
   sodipodi:docname="delta_h_v0_sin.svg"
   inkscape:version="1.0 (4035a4fb49, 2020-05-01)"
   id="svg8"
   version="1.1"
   viewBox="0 0 210 297"
   height="297mm"
   width="210mm">
  <defs
     id="defs2">
    <clipPath
       clipPathUnits="userSpaceOnUse"
       id="clipPath847">
      <path
         d="M 0,0 H 600 V 400 H 0 Z"
         id="path845" />
    </clipPath>
    <clipPath
       clipPathUnits="userSpaceOnUse"
       id="clipPath855">
      <path
         d="M 0,0 H 600 V 600 H 0 Z"
         id="path853" />
    </clipPath>
    <clipPath
       clipPathUnits="userSpaceOnUse"
       id="clipPath865">
      <path
         d="M 0,0 H 600 V 600 H 0 Z"
         id="path863" />
    </clipPath>
    <clipPath
       clipPathUnits="userSpaceOnUse"
       id="clipPath1079">
      <path
         d="M 0,0 H 600 V 600 H 0 Z"
         id="path1077" />
    </clipPath>
  </defs>
  <sodipodi:namedview
     inkscape:window-maximized="1"
     inkscape:window-y="-8"
     inkscape:window-x="-8"
     inkscape:window-height="1377"
     inkscape:window-width="2560"
     showgrid="false"
     inkscape:document-rotation="0"
     inkscape:current-layer="layer1"
     inkscape:document-units="mm"
     inkscape:cy="332.7062"
     inkscape:cx="522.4428"
     inkscape:zoom="0.98994949"
     inkscape:pageshadow="2"
     inkscape:pageopacity="0.0"
     borderopacity="1.0"
     bordercolor="#666666"
     pagecolor="#ffffff"
     id="base" />
  <metadata
     id="metadata5">
    <rdf:RDF>
      <cc:Work
         rdf:about="">
        <dc:format>image/svg+xml</dc:format>
        <dc:type
           rdf:resource="http://purl.org/dc/dcmitype/StillImage" />
        <dc:title></dc:title>
      </cc:Work>
    </rdf:RDF>
  </metadata>
  <g
     id="layer1"
     inkscape:groupmode="layer"
     inkscape:label="Ebene 1">
    <g
       id="g1666">
      <g
         id="g849"
         transform="matrix(0.35277777,0,0,-0.35277777,27.97024,140.10317)">
        <g
           clip-path="url(#clipPath855)"
           id="g851">
          <path
             id="path857"
             style="fill:#ffffff;fill-opacity:1;fill-rule:evenodd;stroke:none"
             d="M 0,0 H 600 V 400 H 0" />
        </g>
      </g>
      <g
         id="g859"
         transform="matrix(0.35277777,0,0,-0.35277777,27.97024,140.10317)">
        <g
           clip-path="url(#clipPath865)"
           id="g861">
          <path
             id="path867"
             style="fill:#ffffff;fill-opacity:1;fill-rule:evenodd;stroke:none"
             d="M 91.38,59.31 H 588.19 V 388.19 H 91.38" />
        </g>
      </g>
      <path
         id="path869"
         style="fill:none;stroke:#000000;stroke-width:0.352778;stroke-linecap:butt;stroke-linejoin:miter;stroke-miterlimit:10;stroke-dasharray:none;stroke-opacity:1"
         d="M 60.207073,119.17992 H 235.4706" />
      <path
         id="path871"
         style="fill:none;stroke:#000000;stroke-width:0.352778;stroke-linecap:butt;stroke-linejoin:miter;stroke-miterlimit:10;stroke-dasharray:none;stroke-opacity:1"
         d="m 65.001323,119.17992 v -1.39347" />
      <path
         id="path873"
         style="fill:none;stroke:#000000;stroke-width:0.352778;stroke-linecap:butt;stroke-linejoin:miter;stroke-miterlimit:10;stroke-dasharray:none;stroke-opacity:1"
         d="m 94.366544,119.17992 v -1.39347" />
      <path
         id="path875"
         style="fill:none;stroke:#000000;stroke-width:0.352778;stroke-linecap:butt;stroke-linejoin:miter;stroke-miterlimit:10;stroke-dasharray:none;stroke-opacity:1"
         d="m 123.73529,119.17992 v -1.39347" />
      <path
         id="path877"
         style="fill:none;stroke:#000000;stroke-width:0.352778;stroke-linecap:butt;stroke-linejoin:miter;stroke-miterlimit:10;stroke-dasharray:none;stroke-opacity:1"
         d="m 153.10052,119.17992 v -1.39347" />
      <path
         id="path879"
         style="fill:none;stroke:#000000;stroke-width:0.352778;stroke-linecap:butt;stroke-linejoin:miter;stroke-miterlimit:10;stroke-dasharray:none;stroke-opacity:1"
         d="m 182.46574,119.17992 v -1.39347" />
      <path
         id="path881"
         style="fill:none;stroke:#000000;stroke-width:0.352778;stroke-linecap:butt;stroke-linejoin:miter;stroke-miterlimit:10;stroke-dasharray:none;stroke-opacity:1"
         d="m 211.83096,119.17992 v -1.39347" />
      <text
         id="text885"
         style="font-variant:normal;font-weight:normal;font-size:8.46667px;font-family:Helvetica;-inkscape-font-specification:Helvetica;writing-mode:lr-tb;fill:#000000;fill-opacity:1;fill-rule:nonzero;stroke:none;stroke-width:0.352778"
         x="62.708267"
         y="128.06992"><tspan
           id="tspan883"
           y="128.06992"
           x="62.708267"
           style="stroke-width:0.352778">0</tspan></text>
      <text
         id="text889"
         style="font-variant:normal;font-weight:normal;font-size:8.46667px;font-family:Helvetica;-inkscape-font-specification:Helvetica;writing-mode:lr-tb;fill:#000000;fill-opacity:1;fill-rule:nonzero;stroke:none;stroke-width:0.352778"
         x="92.073486"
         y="128.06992"><tspan
           id="tspan887"
           y="128.06992"
           x="92.073486"
           style="stroke-width:0.352778">5</tspan></text>
      <text
         id="text893"
         style="font-variant:normal;font-weight:normal;font-size:8.46667px;font-family:Helvetica;-inkscape-font-specification:Helvetica;writing-mode:lr-tb;fill:#000000;fill-opacity:1;fill-rule:nonzero;stroke:none;stroke-width:0.352778"
         x="119.14918"
         y="128.06992"><tspan
           id="tspan891"
           sodipodi:role="line"
           y="128.06992"
           x="119.14918 123.85664"
           style="stroke-width:0.352778">10</tspan></text>
      <text
         id="text897"
         style="font-variant:normal;font-weight:normal;font-size:8.46667px;font-family:Helvetica;-inkscape-font-specification:Helvetica;writing-mode:lr-tb;fill:#000000;fill-opacity:1;fill-rule:nonzero;stroke:none;stroke-width:0.352778"
         x="148.5144"
         y="128.06992"><tspan
           id="tspan895"
           sodipodi:role="line"
           y="128.06992"
           x="148.5144 153.22186"
           style="stroke-width:0.352778">15</tspan></text>
      <text
         id="text901"
         style="font-variant:normal;font-weight:normal;font-size:8.46667px;font-family:Helvetica;-inkscape-font-specification:Helvetica;writing-mode:lr-tb;fill:#000000;fill-opacity:1;fill-rule:nonzero;stroke:none;stroke-width:0.352778"
         x="177.87962"
         y="128.06992"><tspan
           id="tspan899"
           sodipodi:role="line"
           y="128.06992"
           x="177.87962 182.5871"
           style="stroke-width:0.352778">20</tspan></text>
      <text
         id="text905"
         style="font-variant:normal;font-weight:normal;font-size:8.46667px;font-family:Helvetica;-inkscape-font-specification:Helvetica;writing-mode:lr-tb;fill:#000000;fill-opacity:1;fill-rule:nonzero;stroke:none;stroke-width:0.352778"
         x="207.24484"
         y="128.06992"><tspan
           id="tspan903"
           sodipodi:role="line"
           y="128.06992"
           x="207.24484 211.95232"
           style="stroke-width:0.352778">25</tspan></text>
      <text
         id="text909"
         style="font-style:normal;font-variant:normal;font-weight:normal;font-stretch:normal;font-size:9.17222px;font-family:Arial;-inkscape-font-specification:'Arial, Normal';font-variant-ligatures:normal;font-variant-caps:normal;font-variant-numeric:normal;font-variant-east-asian:normal;writing-mode:lr-tb;fill:#000000;fill-opacity:1;fill-rule:nonzero;stroke:none;stroke-width:0.352778"
         x="141.4906"
         y="139.86681"><tspan
           sodipodi:role="line"
           id="tspan1526"
           x="141.4906"
           y="139.86681">t/t<tspan
   style="font-size:65%;baseline-shift:sub"
   id="tspan1528">0</tspan></tspan></text>
      <path
         id="path911"
         style="fill:none;stroke:#000000;stroke-width:0.352778;stroke-linecap:butt;stroke-linejoin:miter;stroke-miterlimit:10;stroke-dasharray:none;stroke-opacity:1"
         d="M 60.207073,119.17992 V 3.1583675" />
      <path
         id="path913"
         style="fill:none;stroke:#000000;stroke-width:0.352778;stroke-linecap:butt;stroke-linejoin:miter;stroke-miterlimit:10;stroke-dasharray:none;stroke-opacity:1"
         d="m 60.207073,116.73164 h 2.102555" />
      <path
         id="path915"
         style="fill:none;stroke:#000000;stroke-width:0.352778;stroke-linecap:butt;stroke-linejoin:miter;stroke-miterlimit:10;stroke-dasharray:none;stroke-opacity:1"
         d="m 60.207073,91.377504 h 2.102555" />
      <path
         id="path917"
         style="fill:none;stroke:#000000;stroke-width:0.352778;stroke-linecap:butt;stroke-linejoin:miter;stroke-miterlimit:10;stroke-dasharray:none;stroke-opacity:1"
         d="m 60.207073,66.023366 h 2.102555" />
      <path
         id="path919"
         style="fill:none;stroke:#000000;stroke-width:0.352778;stroke-linecap:butt;stroke-linejoin:miter;stroke-miterlimit:10;stroke-dasharray:none;stroke-opacity:1"
         d="m 60.207073,40.669228 h 2.102555" />
      <path
         id="path921"
         style="fill:none;stroke:#000000;stroke-width:0.352778;stroke-linecap:butt;stroke-linejoin:miter;stroke-miterlimit:10;stroke-dasharray:none;stroke-opacity:1"
         d="m 60.207073,15.311562 h 2.102555" />
      <text
         id="text925"
         style="font-variant:normal;font-weight:normal;font-size:8.46667px;font-family:Helvetica;-inkscape-font-specification:Helvetica;writing-mode:lr-tb;fill:#000000;fill-opacity:1;fill-rule:nonzero;stroke:none;stroke-width:0.352778"
         x="45.743183"
         y="119.73025"><tspan
           id="tspan923"
           sodipodi:role="line"
           y="119.73025"
           x="45.743183 50.450649 52.804382"
           style="stroke-width:0.352778">0.0</tspan></text>
      <text
         id="text929"
         style="font-variant:normal;font-weight:normal;font-size:8.46667px;font-family:Helvetica;-inkscape-font-specification:Helvetica;writing-mode:lr-tb;fill:#000000;fill-opacity:1;fill-rule:nonzero;stroke:none;stroke-width:0.352778"
         x="45.743183"
         y="94.376114"><tspan
           id="tspan927"
           sodipodi:role="line"
           y="94.376114"
           x="45.743183 50.450649 52.804382"
           style="stroke-width:0.352778">2.5</tspan></text>
      <text
         id="text933"
         style="font-variant:normal;font-weight:normal;font-size:8.46667px;font-family:Helvetica;-inkscape-font-specification:Helvetica;writing-mode:lr-tb;fill:#000000;fill-opacity:1;fill-rule:nonzero;stroke:none;stroke-width:0.352778"
         x="45.743183"
         y="69.02198"><tspan
           id="tspan931"
           sodipodi:role="line"
           y="69.02198"
           x="45.743183 50.450649 52.804382"
           style="stroke-width:0.352778">5.0</tspan></text>
      <text
         id="text937"
         style="font-variant:normal;font-weight:normal;font-size:8.46667px;font-family:Helvetica;-inkscape-font-specification:Helvetica;writing-mode:lr-tb;fill:#000000;fill-opacity:1;fill-rule:nonzero;stroke:none;stroke-width:0.352778"
         x="45.743183"
         y="43.667839"><tspan
           id="tspan935"
           sodipodi:role="line"
           y="43.667839"
           x="45.743183 50.450649 52.804382"
           style="stroke-width:0.352778">7.5</tspan></text>
      <text
         id="text941"
         style="font-variant:normal;font-weight:normal;font-size:8.46667px;font-family:Helvetica;-inkscape-font-specification:Helvetica;writing-mode:lr-tb;fill:#000000;fill-opacity:1;fill-rule:nonzero;stroke:none;stroke-width:0.352778"
         x="40.804295"
         y="18.310173"><tspan
           id="tspan939"
           sodipodi:role="line"
           y="18.310173"
           x="40.804295 45.511761 50.219227 52.57296"
           style="stroke-width:0.352778">10.0</tspan></text>
      <text
         id="text945"
         style="font-variant:normal;font-weight:normal;font-size:9.87778px;font-family:Arial;-inkscape-font-specification:'Arial, Normal';writing-mode:lr-tb;fill:#000000;fill-opacity:1;fill-rule:nonzero;stroke:none;stroke-width:0.352778;font-style:normal;font-stretch:normal;font-variant-ligatures:normal;font-variant-caps:normal;font-variant-numeric:normal;font-variant-east-asian:normal;"
         transform="rotate(-90)"
         x="-66.284424"
         y="35.396214"><tspan
           sodipodi:role="line"
           id="tspan1532">Δh</tspan></text>
      <path
         id="path947"
         style="fill:none;stroke:#009afa;stroke-width:1.05833;stroke-linecap:butt;stroke-linejoin:miter;stroke-miterlimit:10;stroke-dasharray:none;stroke-opacity:1"
         d="m 65.167128,114.73845 0.165806,0.0388 0.165805,0.0388 0.165806,0.0353 0.165805,0.0388 0.165806,0.0388 0.165805,0.0388 0.165806,0.0388 0.165805,0.0423 0.162278,0.0388 0.165806,0.0388 0.165805,0.0423 0.165806,0.0423 0.165805,0.0423 0.165806,0.0423 0.165806,0.0423 0.165805,0.0423 0.165806,0.0423 0.165805,0.0459 0.165806,0.0423 0.165805,0.0459 0.162278,0.0388 0.165806,0.0353 0.165805,0.0282 0.165806,0.0282 0.165805,0.0247 0.165806,0.0212 0.165805,0.0176 0.165806,0.0212 0.165806,0.0141 0.165805,0.0141 0.165806,0.0141 0.165805,0.0106 0.162278,0.0141 0.165806,0.0106 0.165805,0.007 0.165806,0.0106 0.165805,0.007 0.165806,0.007 0.165805,0.004 0.165806,0.007 0.165805,0.004 0.165806,-0.0706 0.165805,-0.0776 0.162278,-0.0811 0.165806,-0.0847 0.165805,-0.0953 0.165806,-0.0988 0.165805,-0.11289 0.165806,-0.12347 0.165806,-0.13759 0.165805,-0.15874 0.165806,-0.18698 0.165805,-0.22225 0.165806,-0.27869 0.165805,-0.35983 0.162278,-0.50095 0.165806,-0.77258 0.165805,-1.56986 0.165806,-4.72017 0.165805,-1.78153 0.165806,-2.25778 0.165805,-1.61925 0.165806,-1.301746 0.165806,-1.0795 0.165805,-0.945444 0.165806,-0.804333 0.165805,-0.758473 0.162278,-0.687916 0.165805,-0.624417 0.165806,-0.564444 0.165806,-0.567973 0.165805,-0.504472 0.165806,-0.458611 0.165805,-0.451555 0.165806,-0.388056 0.165805,-0.405694 0.165806,-0.370417 0.165805,-0.328083 0.165806,-0.324556 0.162278,-0.313972 0.165805,-0.264584 0.165806,-0.28575 0.165805,-0.254 0.165806,-0.243416 0.165806,-0.218722 0.165805,-0.229306 0.165806,-0.208139 0.165805,-0.194028 0.165806,-0.1905 0.165805,-0.15875 0.165806,-0.179916 0.162278,-0.162278 0.165805,-0.144639 0.165806,-0.169333 0.165805,-0.134056 0.165806,-0.137583 0.165805,-0.127 0.165806,-0.137583 0.165805,-0.127 0.165806,-0.112889 0.165806,-0.109361 0.165805,-0.102306 0.165806,-0.105833 0.162277,-0.07408 0.165806,-0.08467 0.165806,-0.07408 0.165805,-0.08819 0.165806,-0.08467 0.165805,-0.123472 0.165806,-0.127 0.165805,-2.201333 0.165806,-1.700389 0.165805,-1.217083 0.165806,-1.026584 0.162278,-0.889 0.165805,-0.783166 0.165806,-0.691445 0.165805,-0.620889 0.165806,-0.567972 0.165806,-0.515055 0.165805,-0.472723 0.165806,-0.440972 0.165805,-0.41275 0.165806,-0.388055 0.165805,-0.370417 0.165806,-0.345722 0.162278,-0.328084 0.165805,-0.324555 0.165806,-0.310445 0.165805,-0.303388 0.165806,-0.292806 0.165805,-0.282222 0.165806,-0.275167 0.165805,-0.268111 0.165806,-0.250472 0.165806,-0.254 0.165805,-0.250472 0.165806,-0.239889 0.162277,-0.236361 0.165806,-0.22225 0.165806,-0.208139 0.165805,-0.194028 0.165806,-0.169333 0.165805,-0.165806 0.165806,-0.155222 0.165805,-0.134056 0.165806,-0.112889 0.165805,-0.112889 0.165806,-0.09525 0.165806,-0.07408 0.162277,-0.07761 0.165806,-0.04939 0.165805,-0.05292 0.165806,-0.03881 0.165806,-0.02822 0.165805,-0.01411 0.165806,0.01058 0.165805,0.04586 0.165806,0.08114 0.165805,0.09878 0.165806,0.134055 0.165805,0.134056 0.162278,0.134055 0.165806,0.127 0.165805,0.09878 0.165806,0.05644 0.165805,0.0035 0.165806,-0.08819 0.165805,-0.254 0.165806,-0.871361 0.165806,-1.728611 0.165805,-1.640417 0.165806,-1.562805 0.165805,-1.485195 0.162278,-1.411111 0.165806,-1.344083 0.165805,-1.284111 0.165806,-1.227667 0.165805,-1.167694 0.165806,-1.114778 0.165805,-1.065389 0.165806,-1.012472 0.165805,-0.970139 0.165806,-0.927806 0.165806,-0.889 0.165805,-0.850194 0.162278,-0.821972 0.165805,-0.786695 0.165806,-0.758472 0.165805,-0.733778 0.165806,-0.709083 0.165806,-0.684389 0.165805,-0.663222 0.165806,-0.642055 0.165805,-0.620889 0.165806,-0.596195 0.165805,-0.575028 0.162278,-0.557388 0.165806,-0.546806 0.165805,-0.536222 0.165806,-0.529167 0.165805,-0.518583 0.165806,-0.511528 0.165805,-0.493889 0.165806,-0.483305 0.165806,-0.465667 0.165805,-0.451556 0.165806,-0.451555 0.165805,-0.448028 0.162278,-0.451555 0.165806,-0.4445 0.16581,-0.437445 0.1658,-0.430389 0.16581,-0.416277 0.1658,-0.430389 0.16581,-0.395111 0.1658,-0.391584 0.16581,-0.398639 0.1658,-0.405694 0.16581,-0.398639 0.16581,-0.391583 0.16227,-0.388056 0.16581,-0.345722 0.1658,-0.328083 0.16581,-0.299862 0.16581,-0.289277 0.1658,-0.28575 0.16581,-0.313972 0.1658,-0.335139 0.16581,-0.370417 0.1658,-0.409222 0.16581,-0.4445 0.1658,-0.490361 0.16228,-0.522111 0.16581,-0.550334 0.1658,-0.5715 0.16581,-0.627944 0.1658,-0.6985 0.16581,-0.744361 0.1658,-0.776111 0.16581,-0.776111 0.16581,-0.754945 0.1658,-0.723194 0.16581,-0.712611 0.1658,-0.709084 0.16228,-0.702027 0.16581,-0.680862 0.1658,-0.645583 0.16581,-0.599722 0.1658,-0.560917 0.16581,-0.525639 0.1658,-0.490361 0.16581,-0.469194 0.1658,-0.433917 0.16581,-0.405694 0.16581,-0.3739447 0.1658,-0.3421944 0.16228,-0.3069167 0.1658,-0.2751666 0.16581,-0.2434167 0.16581,-0.2116667 0.1658,-0.1905 0.16581,-0.1658055 0.1658,-0.1481667 0.16581,-0.1340555 0.1658,-0.1164167 0.16581,-0.1093611 0.1658,-0.09525 0.16228,-0.088194 0.16581,-0.077611 0.1658,-0.067028 0.16581,-0.059972 0.1658,-0.056444 0.16581,-0.045861 0.16581,-0.045861 0.1658,-0.038806 0.16581,-0.035278 0.1658,-0.03175 0.16581,-0.028222 0.1658,-0.024694 0.16228,-0.024695 0.16581,-0.021167 0.1658,-0.017639 0.16581,-0.017639 0.1658,-0.014111 0.16581,-0.010583 0.1658,-0.014111 0.16581,-0.00706 0.16581,-0.010583 0.1658,-0.00706 0.16581,-0.00706 0.1658,-0.00706 0.16228,-0.00706 0.16581,-0.00353 0.1658,-0.00353 0.16581,-0.00353 0.1658,-0.00353 0.16581,-0.00353 0.1658,-0.00353 0.16581,-0.00353 h 0.1658 l 0.16581,-0.00353 h 0.16581 l 0.1658,-0.00353 h 0.16228 l 0.1658,-0.00353 h 0.16581 0.16581 l 0.1658,-0.00353 h 0.16581 0.1658 l 0.16581,-0.00353 h 0.1658 0.16581 0.1658 l 0.16581,-0.00353 h 0.16228 0.1658 0.16581 0.1658 l 0.16581,-0.00353 h 0.16581 0.1658 0.16581 0.1658 l 0.16581,-0.00353 h 0.1658 0.16581 0.16228 0.1658 l 0.16581,-0.00353 h 0.1658 0.16581 0.1658 0.16581 0.16581 l 0.1658,-0.00353 h 0.16581 0.1658 0.16228 0.16581 l 0.1658,-0.00353 h 0.16581 0.1658 0.16581 0.1658 l 0.16581,-0.00353 h 0.1658 0.16581 0.16581 0.1658 0.16228 l 0.1658,-0.00353 h 0.16581 0.16581 0.1658 0.16581 l 0.1658,-0.00353 h 0.16581 0.1658 0.16581 0.1658 0.16581 l 0.16228,-0.00353 h 0.1658 0.16581 0.1658 0.16581 l 0.16581,-0.00353 h 0.1658 0.16581 0.1658 0.16581 l 0.1658,-0.00353 h 0.16581 0.16228 0.1658 0.16581 0.1658 l 0.16581,-0.00353 h 0.1658 0.16581 0.16581 0.1658 l 0.16581,-0.00353 h 0.1658 0.16581 0.16228 0.1658 l 0.16581,-0.00353 h 0.1658 0.16581 0.1658 0.16581 0.1658 l 0.16581,-0.00353 h 0.16581 0.1658 0.16581 0.16227 l 0.16581,-0.00353 h 0.16581 0.1658 0.16581 0.1658 l 0.16581,-0.00353 h 0.1658 0.16581 0.1658 0.16581 l 0.16228,-0.00353 h 0.1658 0.16581 0.1658 0.16581 l 0.16581,-0.00353 h 0.1658 0.16581 0.1658 0.16581 l 0.1658,-0.00353 h 0.16581 0.16228 0.1658 0.16581 l 0.1658,-0.00353 h 0.16581 0.1658 0.16581 0.16581 l 0.1658,-0.00353 h 0.16581 0.1658 0.16581 0.16228 l 0.1658,-0.00353 h 0.16581 0.1658 0.16581 0.1658 l 0.16581,-0.00353 h 0.1658 0.16581 0.16581 0.1658 l 0.16581,-0.00353 h 0.16227 0.16581 0.16581 0.1658 l 0.16581,-0.00353 h 0.1658 0.16581 0.1658 0.16581 l 0.1658,-0.00353 h 0.16581 0.16581 0.16227 0.16581 l 0.1658,-0.00353 h 0.16581 0.16581 0.1658 0.16581 l 0.1658,-0.00353 h 0.16581 0.1658 0.16581 0.1658 l 0.16228,-0.00353 h 0.16581 0.1658 0.16581 0.1658 l 0.16581,-0.00353 h 0.16581 0.1658 0.16581 0.1658 l 0.16581,-0.00353 h 0.1658 0.16228 0.16581 0.1658 l 0.16581,-0.00353 h 0.1658 0.16581 0.1658 0.16581 l 0.16581,-0.00353 h 0.1658 0.16581 0.16227 0.16581 l 0.16581,-0.00353 h 0.1658 0.16581 0.1658 l 0.16581,-0.00353 h 0.1658 0.16581 0.1658 0.16581 l 0.16581,-0.00353 h 0.16227 0.16581 0.1658 0.16581 l 0.16581,-0.00353 h 0.1658 0.16581 0.1658 0.16581 l 0.1658,-0.00353 h 0.16581 0.1658 0.16228 0.16581 l 0.1658,-0.00353 h 0.16581 0.1658 0.16581 l 0.16581,-0.00353 h 0.1658 0.16581 0.1658 0.16581 l 0.1658,-0.00353 h 0.16228 0.16581 0.1658 0.16581 l 0.1658,-0.00353 h 0.16581 0.1658 0.16581 l 0.1658,-0.00353 h 0.16581 0.16581 0.1658 0.16228 l 0.1658,-0.00353 h 0.16581 0.16581 0.1658 0.16581 l 0.1658,-0.00353 h 0.16581 0.1658 0.16581 l 0.1658,-0.00353 h 0.16581 0.16228 0.1658 0.16581 l 0.1658,-0.00353 h 0.16581 0.16581 0.1658 0.16581 l 0.1658,-0.00353 h 0.16581 0.1658 0.16228 l 0.16581,-0.00353 h 0.1658 0.16581 0.1658 0.16581 l 0.1658,-0.00353 h 0.16581 0.16581 0.1658 0.16581 l 0.1658,-0.00353 h 0.16228 0.16581 0.1658 l 0.16581,-0.00353 h 0.1658 0.16581 0.1658 0.16581 l 0.1658,-0.00353 h 0.16581 0.16581 0.1658 l 0.16228,-0.00353 h 0.1658 0.16581 0.16581 0.1658 l 0.16581,-0.00353 h 0.1658 0.16581 0.1658 l 0.16581,-0.00353 h 0.1658 0.16581 0.16228 l 0.1658,-0.00353 h 0.16581 0.1658 0.16581 0.16581 l 0.1658,-0.00353 h 0.16581 0.1658 0.16581 l 0.1658,-0.00353 h 0.16581 0.16228 0.1658 0.16581 l 0.1658,-0.00353 h 0.16581 0.1658 0.16581 l 0.16581,-0.00353 h 0.1658 0.16581 0.1658 0.16581 l 0.16228,-0.00353 h 0.1658 0.16581 0.1658 l 0.16581,-0.00353 h 0.1658 0.16581 0.1658 l 0.16581,-0.00353 h 0.16581 0.1658 0.16228 0.1658 l 0.16581,-0.00353 h 0.16581 0.1658 0.16581 l 0.1658,-0.00353 h 0.16581 0.1658 0.16581 l 0.1658,-0.00353 h 0.16581 0.16228 0.1658 l 0.16581,-0.00353 h 0.1658 0.16581 0.16581 0.1658 l 0.16581,-0.00353 h 0.1658 0.16581 0.1658 l 0.16581,-0.00353 h 0.16228 0.1658 0.16581 l 0.1658,-0.00353 h 0.16581 0.1658 0.16581 0.16581 l 0.1658,-0.00353 h 0.16581 0.1658 0.16581 l 0.16228,-0.00353 h 0.1658 0.16581 0.1658 l 0.16581,-0.00353 h 0.1658 0.16581 0.1658 l 0.16581,-0.00353 h 0.16581 0.1658 0.16581 0.16227 l 0.16581,-0.00353 h 0.16581 0.1658 0.16581 l 0.1658,-0.00353 h 0.16581 0.1658 0.16581 l 0.1658,-0.00353 h 0.16581 0.16581 0.16227 0.16581 l 0.1658,-0.00353 h 0.16581 0.16581 0.1658 0.16581 l 0.1658,-0.00353 h 0.16581 0.1658 0.16581 l 0.1658,-0.00353 h 0.16228 0.16581 l 0.1658,-0.00353 h 0.16581 l 0.1658,-0.00353 h 0.16581 l 0.16581,-0.00353 h 0.1658 l 0.16581,-0.00353 h 0.1658 l 0.16581,-0.00353 h 0.16228 l 0.1658,-0.00353 0.16581,-0.00353 h 0.1658 l 0.16581,-0.00353 h 0.1658 l 0.16581,-0.00353 h 0.1658 l 0.16581,-0.00353 h 0.16581 0.1658 l 0.16581,-0.00353 h 0.16227 l 0.16581,-0.00353 h 0.16581 l 0.1658,-0.00353 h 0.16581 0.1658 l 0.16581,-0.00353 h 0.1658 l 0.16581,-0.00353 h 0.1658 0.16581 l 0.16581,-0.00353 h 0.16227 0.16581 l 0.1658,-0.00353 h 0.16581 0.16581 l 0.1658,-0.00353 h 0.16581 0.1658 0.16581 l 0.1658,-0.00353 h 0.16581 0.1658 0.16228 l 0.16581,-0.00353 h 0.1658 0.16581 0.1658 l 0.16581,-0.00353 h 0.16581 0.1658 0.16581 0.1658 l 0.16581,-0.00353 h 0.1658 0.16228 0.16581 0.1658 0.16581 l 0.1658,-0.00353 h 0.16581 0.1658 0.16581 0.16581 0.1658 0.16581 l 0.1658,-0.00353 h 0.16228 0.16581 0.1658 0.16581 0.1658 0.16581 0.1658 l 0.16581,-0.00353 h 0.1658 0.16581 0.16581 0.16227 0.16581 0.1658 0.16581 0.16581 l 0.1658,-0.00353 h 0.16581 0.1658 0.16581 0.1658 0.16581 0.1658 0.16228 0.16581 0.1658 0.16581 0.1658 0.16581 0.16581 l 0.1658,-0.00353 h 0.16581 0.1658 0.16581 0.1658 0.16228 0.16581 0.1658 0.16581 0.1658 0.16581 0.1658 0.16581 0.16581 0.1658 0.16581 0.1658 0.16228 0.16581 l 0.1658,-0.00353 h 0.16581 0.1658 0.16581 0.1658 0.16581 0.1658 0.16581 0.16581 0.1658 0.16228 0.1658 0.16581 0.16581 0.1658 0.16581 0.1658 0.16581 0.1658 0.16581 0.1658 0.16581 0.16228 0.1658 0.16581 0.1658 0.16581 0.1658 0.16581 0.16581 0.1658 0.16581 0.1658 0.16228 0.16581 0.1658 0.16581 0.1658 l 0.16581,-0.00353 h 0.1658 0.16581 0.1658 0.16581 0.16581 0.1658 0.16228 0.1658 0.16581 0.16581 0.1658 0.16581 0.1658 0.16581 0.1658 0.16581 0.1658 0.16581 0.16228 0.1658 0.16581 0.1658 0.16581 0.16581 0.1658 0.16581 0.1658 0.16581 0.1658 0.16581 0.16228 0.1658 0.16581 0.1658 0.16581 0.1658 0.16581 0.16581 0.1658 0.16581 0.1658 0.16581 0.16228 0.1658 0.16581 0.1658 0.16581 0.1658 0.16581 0.1658 0.16581 0.16581 0.1658 0.16581 0.16227 0.16581 0.16581 0.1658 0.16581 0.1658 0.16581 0.1658 0.16581 0.1658 0.16581 0.16228 0.1658 0.16581 0.1658 0.16581 0.16581 0.1658 0.16581 0.1658 0.16581 0.1658 0.16581 0.16228 0.1658 0.16581 0.1658 0.16581 0.1658 0.16581 0.16581 0.1658 0.16581 0.1658 0.16581 0.16228 0.1658 0.16581 0.1658 0.16581 0.1658 0.16581 0.1658 0.16581 0.16581 0.1658 0.16581 0.16227 0.16581 0.16581 0.1658 0.16581 0.1658 0.16581 0.1658 0.16581 0.1658 0.16581 0.16581 0.16227 0.16581 0.1658 0.16581 0.16581 0.1658 0.16581 0.1658 0.16581 0.1658 0.16581 0.1658 0.16228 0.16581 0.1658 0.16581 0.1658 0.16581 0.16581 0.1658" />
      <path
         id="path949"
         style="fill:#009afa;fill-opacity:0.6;fill-rule:evenodd;stroke:#000000;stroke-width:0.282222;stroke-linecap:butt;stroke-linejoin:miter;stroke-miterlimit:10;stroke-dasharray:none;stroke-opacity:0.6"
         d="m 65.167128,112.269 c -1.361722,0 -2.469444,1.10773 -2.469444,2.46945 0,1.36525 1.107722,2.46944 2.469444,2.46944 1.36525,0 2.469444,-1.10419 2.469444,-2.46944 0,-1.36172 -1.104194,-2.46945 -2.469444,-2.46945 z" />
      <path
         id="path951"
         style="fill:#009afa;fill-opacity:0.6;fill-rule:evenodd;stroke:#000000;stroke-width:0.282222;stroke-linecap:butt;stroke-linejoin:miter;stroke-miterlimit:10;stroke-dasharray:none;stroke-opacity:0.6"
         d="m 73.443295,112.54417 c -1.36525,0 -2.469445,1.1042 -2.469445,2.46944 0,1.36525 1.104195,2.46945 2.469445,2.46945 1.36525,0 2.469444,-1.1042 2.469444,-2.46945 0,-1.36524 -1.104194,-2.46944 -2.469444,-2.46944 z" />
      <path
         id="path953"
         style="fill:#009afa;fill-opacity:0.6;fill-rule:evenodd;stroke:#000000;stroke-width:0.282222;stroke-linecap:butt;stroke-linejoin:miter;stroke-miterlimit:10;stroke-dasharray:none;stroke-opacity:0.6"
         d="m 81.719461,83.556421 c -1.36525,0 -2.469444,1.104195 -2.469444,2.469445 0,1.36525 1.104194,2.469444 2.469444,2.469444 1.361722,0 2.469444,-1.104194 2.469444,-2.469444 0,-1.36525 -1.107722,-2.469445 -2.469444,-2.469445 z" />
      <path
         id="path955"
         style="fill:#009afa;fill-opacity:0.6;fill-rule:evenodd;stroke:#000000;stroke-width:0.282222;stroke-linecap:butt;stroke-linejoin:miter;stroke-miterlimit:10;stroke-dasharray:none;stroke-opacity:0.6"
         d="m 89.995628,64.679283 c -1.36525,0 -2.469445,1.104194 -2.469445,2.469444 0,1.361722 1.104195,2.469445 2.469445,2.469445 1.361722,0 2.469444,-1.107723 2.469444,-2.469445 0,-1.36525 -1.107722,-2.469444 -2.469444,-2.469444 z" />
      <path
         id="path957"
         style="fill:#009afa;fill-opacity:0.6;fill-rule:evenodd;stroke:#000000;stroke-width:0.282222;stroke-linecap:butt;stroke-linejoin:miter;stroke-miterlimit:10;stroke-dasharray:none;stroke-opacity:0.6"
         d="m 98.268266,35.215283 c -1.361722,0 -2.469444,1.104195 -2.469444,2.469445 0,1.361722 1.107722,2.469444 2.469444,2.469444 1.36525,0 2.469444,-1.107722 2.469444,-2.469444 0,-1.36525 -1.104194,-2.469445 -2.469444,-2.469445 z" />
      <path
         id="path959"
         style="fill:#009afa;fill-opacity:0.6;fill-rule:evenodd;stroke:#000000;stroke-width:0.282222;stroke-linecap:butt;stroke-linejoin:miter;stroke-miterlimit:10;stroke-dasharray:none;stroke-opacity:0.6"
         d="m 106.54443,10.213923 c -1.36525,0 -2.46944,1.107722 -2.46944,2.469444 0,1.36525 1.10419,2.469445 2.46944,2.469445 1.36525,0 2.46945,-1.104195 2.46945,-2.469445 0,-1.361722 -1.1042,-2.469444 -2.46945,-2.469444 z" />
      <path
         id="path961"
         style="fill:#009afa;fill-opacity:0.6;fill-rule:evenodd;stroke:#000000;stroke-width:0.282222;stroke-linecap:butt;stroke-linejoin:miter;stroke-miterlimit:10;stroke-dasharray:none;stroke-opacity:0.6"
         d="m 114.8206,4.3860341 c -1.36525,0 -2.46945,1.1077222 -2.46945,2.4694444 0,1.36525 1.1042,2.4694444 2.46945,2.4694444 1.36172,0 2.46944,-1.1041944 2.46944,-2.4694444 0,-1.3617222 -1.10772,-2.4694444 -2.46944,-2.4694444 z" />
      <path
         id="path963"
         style="fill:#009afa;fill-opacity:0.6;fill-rule:evenodd;stroke:#000000;stroke-width:0.282222;stroke-linecap:butt;stroke-linejoin:miter;stroke-miterlimit:10;stroke-dasharray:none;stroke-opacity:0.6"
         d="m 123.09677,4.3437008 c -1.36525,0 -2.46945,1.1041944 -2.46945,2.4694444 0,1.3652499 1.1042,2.4694444 2.46945,2.4694444 1.36172,0 2.46944,-1.1041945 2.46944,-2.4694444 0,-1.36525 -1.10772,-2.4694444 -2.46944,-2.4694444 z" />
      <path
         id="path965"
         style="fill:#009afa;fill-opacity:0.6;fill-rule:evenodd;stroke:#000000;stroke-width:0.282222;stroke-linecap:butt;stroke-linejoin:miter;stroke-miterlimit:10;stroke-dasharray:none;stroke-opacity:0.6"
         d="m 131.3694,4.3119508 c -1.36172,0 -2.46944,1.1041944 -2.46944,2.4694444 0,1.3617222 1.10772,2.4694444 2.46944,2.4694444 1.36525,0 2.46945,-1.1077222 2.46945,-2.4694444 0,-1.36525 -1.1042,-2.4694444 -2.46945,-2.4694444 z" />
      <path
         id="path967"
         style="fill:#009afa;fill-opacity:0.6;fill-rule:evenodd;stroke:#000000;stroke-width:0.282222;stroke-linecap:butt;stroke-linejoin:miter;stroke-miterlimit:10;stroke-dasharray:none;stroke-opacity:0.6"
         d="m 139.64557,4.276673 c -1.36172,0 -2.46944,1.1041944 -2.46944,2.4694444 0,1.3617222 1.10772,2.4694444 2.46944,2.4694444 1.36525,0 2.46945,-1.1077222 2.46945,-2.4694444 0,-1.36525 -1.1042,-2.4694444 -2.46945,-2.4694444 z" />
      <path
         id="path969"
         style="fill:#009afa;fill-opacity:0.6;fill-rule:evenodd;stroke:#000000;stroke-width:0.282222;stroke-linecap:butt;stroke-linejoin:miter;stroke-miterlimit:10;stroke-dasharray:none;stroke-opacity:0.6"
         d="m 147.92174,4.2378674 c -1.36525,0 -2.46945,1.1077222 -2.46945,2.4694444 0,1.36525 1.1042,2.4694444 2.46945,2.4694444 1.36525,0 2.46944,-1.1041944 2.46944,-2.4694444 0,-1.3617222 -1.10419,-2.4694444 -2.46944,-2.4694444 z" />
      <path
         id="path971"
         style="fill:#009afa;fill-opacity:0.6;fill-rule:evenodd;stroke:#000000;stroke-width:0.282222;stroke-linecap:butt;stroke-linejoin:miter;stroke-miterlimit:10;stroke-dasharray:none;stroke-opacity:0.6"
         d="m 156.1979,4.2025897 c -1.36525,0 -2.46944,1.1041944 -2.46944,2.4694444 0,1.3617221 1.10419,2.4694443 2.46944,2.4694443 1.36173,0 2.46945,-1.1077222 2.46945,-2.4694443 0,-1.36525 -1.10772,-2.4694444 -2.46945,-2.4694444 z" />
      <path
         id="path973"
         style="fill:#009afa;fill-opacity:0.6;fill-rule:evenodd;stroke:#000000;stroke-width:0.282222;stroke-linecap:butt;stroke-linejoin:miter;stroke-miterlimit:10;stroke-dasharray:none;stroke-opacity:0.6"
         d="m 164.47407,4.1637841 c -1.36525,0 -2.46944,1.1041944 -2.46944,2.4694444 0,1.36525 1.10419,2.4694444 2.46944,2.4694444 1.36172,0 2.46944,-1.1041944 2.46944,-2.4694444 0,-1.36525 -1.10772,-2.4694444 -2.46944,-2.4694444 z" />
      <path
         id="path975"
         style="fill:#009afa;fill-opacity:0.6;fill-rule:evenodd;stroke:#000000;stroke-width:0.282222;stroke-linecap:butt;stroke-linejoin:miter;stroke-miterlimit:10;stroke-dasharray:none;stroke-opacity:0.6"
         d="m 172.74671,4.1214508 c -1.36172,0 -2.46945,1.1077222 -2.46945,2.4694444 0,1.3652499 1.10773,2.4694444 2.46945,2.4694444 1.36525,0 2.46944,-1.1041945 2.46944,-2.4694444 0,-1.3617222 -1.10419,-2.4694444 -2.46944,-2.4694444 z" />
      <path
         id="path977"
         style="fill:#009afa;fill-opacity:0.6;fill-rule:evenodd;stroke:#000000;stroke-width:0.282222;stroke-linecap:butt;stroke-linejoin:miter;stroke-miterlimit:10;stroke-dasharray:none;stroke-opacity:0.6"
         d="m 181.02288,4.0826452 c -1.36525,0 -2.46945,1.1041944 -2.46945,2.4694444 0,1.36525 1.1042,2.4694444 2.46945,2.4694444 1.36525,0 2.46944,-1.1041944 2.46944,-2.4694444 0,-1.36525 -1.10419,-2.4694444 -2.46944,-2.4694444 z" />
      <path
         id="path979"
         style="fill:#009afa;fill-opacity:0.6;fill-rule:evenodd;stroke:#000000;stroke-width:0.282222;stroke-linecap:butt;stroke-linejoin:miter;stroke-miterlimit:10;stroke-dasharray:none;stroke-opacity:0.6"
         d="m 189.29904,4.0120897 c -1.36525,0 -2.46944,1.1041944 -2.46944,2.4694444 0,1.3652499 1.10419,2.4694443 2.46944,2.4694443 1.36172,0 2.46945,-1.1041944 2.46945,-2.4694443 0,-1.36525 -1.10773,-2.4694444 -2.46945,-2.4694444 z" />
      <path
         id="path981"
         style="fill:#009afa;fill-opacity:0.6;fill-rule:evenodd;stroke:#000000;stroke-width:0.282222;stroke-linecap:butt;stroke-linejoin:miter;stroke-miterlimit:10;stroke-dasharray:none;stroke-opacity:0.6"
         d="m 197.57521,3.9838674 c -1.36525,0 -2.46945,1.1041945 -2.46945,2.4694444 0,1.36525 1.1042,2.4694444 2.46945,2.4694444 1.36172,0 2.46944,-1.1041944 2.46944,-2.4694444 0,-1.3652499 -1.10772,-2.4694444 -2.46944,-2.4694444 z" />
      <path
         id="path983"
         style="fill:#009afa;fill-opacity:0.6;fill-rule:evenodd;stroke:#000000;stroke-width:0.282222;stroke-linecap:butt;stroke-linejoin:miter;stroke-miterlimit:10;stroke-dasharray:none;stroke-opacity:0.6"
         d="m 205.84785,3.9768119 c -1.36173,0 -2.46945,1.1041944 -2.46945,2.4694444 0,1.3617222 1.10772,2.4694444 2.46945,2.4694444 1.36525,0 2.46944,-1.1077222 2.46944,-2.4694444 0,-1.36525 -1.10419,-2.4694444 -2.46944,-2.4694444 z" />
      <path
         id="path985"
         style="fill:#009afa;fill-opacity:0.6;fill-rule:evenodd;stroke:#000000;stroke-width:0.282222;stroke-linecap:butt;stroke-linejoin:miter;stroke-miterlimit:10;stroke-dasharray:none;stroke-opacity:0.6"
         d="m 214.12401,3.9732841 c -1.36172,0 -2.46944,1.1077222 -2.46944,2.4694444 0,1.36525 1.10772,2.4694444 2.46944,2.4694444 1.36525,0 2.46945,-1.1041944 2.46945,-2.4694444 0,-1.3617222 -1.1042,-2.4694444 -2.46945,-2.4694444 z" />
      <path
         id="path987"
         style="fill:#009afa;fill-opacity:0.6;fill-rule:evenodd;stroke:#000000;stroke-width:0.282222;stroke-linecap:butt;stroke-linejoin:miter;stroke-miterlimit:10;stroke-dasharray:none;stroke-opacity:0.6"
         d="m 222.40018,3.9732841 c -1.36525,0 -2.46944,1.1041944 -2.46944,2.4694444 0,1.36525 1.10419,2.4694444 2.46944,2.4694444 1.36525,0 2.46944,-1.1041944 2.46944,-2.4694444 0,-1.36525 -1.10419,-2.4694444 -2.46944,-2.4694444 z" />
      <path
         id="path989"
         style="fill:none;stroke:#e36f47;stroke-width:1.05833;stroke-linecap:butt;stroke-linejoin:miter;stroke-miterlimit:10;stroke-dasharray:none;stroke-opacity:1"
         d="m 65.167128,114.69612 0.165806,-0.0106 0.165805,-0.0635 0.165806,-0.18344 0.165805,-0.21872 0.165806,-0.24695 0.165805,-0.27869 0.165806,-0.3175 0.165805,-0.36689 0.162278,-0.4445 0.165806,-0.5715 0.165805,-0.83961 0.165806,-1.68981 0.165805,-4.38503 0.165806,-0.0318 0.165806,-1.82386 0.165805,-1.55222 0.165806,-1.25942 0.165805,-0.99483 0.165806,-0.896056 0.165805,-0.740833 0.162278,-0.677333 0.165806,-0.5715 0.165805,-0.518584 0.165806,-0.433916 0.165805,-0.433917 0.165806,-0.426861 0.165805,-0.402167 0.165806,-0.405694 0.165806,-2.032 0.165805,-2.278945 0.165806,-1.407583 0.165805,-1.090083 0.162278,-0.92075 0.165806,-0.790222 0.165805,-0.659695 0.165806,-0.680861 0.165805,-0.560917 0.165806,-0.352777 0.165805,-0.165806 0.165806,-0.02822 0.165805,0.02822 0.165806,-0.09525 0.165805,-0.670278 0.162278,-2.776361 0.165806,-2.818694 0.165805,-2.483556 0.165806,-2.151944 0.165805,-1.880305 0.165806,-1.654528 0.165806,-1.481667 0.165805,-1.319389 0.165806,-1.192389 0.165805,-1.086555 0.165806,-1.005417 0.165805,-0.917222 0.162278,-0.843139 0.165806,-0.779639 0.165805,-0.747889 0.165806,-0.744361 0.165805,-0.733777 0.165806,-0.712611 0.165805,-0.677334 0.165806,-0.627944 0.165806,-0.560917 0.165805,-0.546805 0.165806,-0.60325 0.165805,-0.638528 0.162278,-0.656167 0.165805,-0.659694 0.165806,-0.638528 0.165806,-0.659694 0.165805,-0.543278 0.165806,-0.53975 0.165805,-0.606778 0.165806,-0.592667 0.165805,-0.751416 0.165806,-0.906639 0.165805,-0.910167 0.165806,-0.804333 0.162278,-0.779639 0.165805,-0.66675 0.165806,-0.515056 0.165805,-0.409222 0.165806,-0.324555 0.165806,-0.250473 0.165805,-0.190499 0.165806,-0.148167 0.165805,-0.109361 0.165806,-0.08467 0.165805,-0.05997 0.165806,-0.04939 0.162278,-0.03528 0.165805,-0.02822 0.165806,-0.02117 0.165805,-0.01411 0.165806,-0.0071 0.165805,-0.0071 0.165806,-0.0071 0.165805,-0.0035 h 0.165806 l 0.165806,0.0071 0.165805,0.01058 0.165806,0.01764 0.162277,0.02469 0.165806,0.01764 0.165806,0.01764 0.165805,0.01058 0.165806,0.01058 0.165805,0.0071 0.165806,0.0035 0.165805,0.0035 H 83.7056 l 0.165805,0.0035 h 0.165806 0.162278 0.165805 0.165806 l 0.165805,-0.0035 h 0.165806 l 0.165806,-0.0035 h 0.165805 l 0.165806,-0.0035 0.165805,-0.0035 h 0.165806 l 0.165805,-0.0035 0.165806,-0.0035 0.162278,-0.0035 0.165805,-0.0071 0.165806,-0.0035 0.165805,-0.0035 0.165806,-0.0035 0.165805,-0.0035 0.165806,-0.0071 0.165805,-0.0035 0.165806,-0.0035 0.165806,-0.0035 0.165805,-0.0071 0.165806,-0.0035 0.162277,-0.0035 0.165806,-0.0071 0.165806,-0.0035 0.165805,-0.0035 0.165806,-0.0071 0.165805,-0.0035 0.165806,-0.0035 0.165805,-0.0071 0.165806,-0.0035 0.165805,-0.0035 0.165806,-0.0035 0.165806,-0.0071 0.162277,-0.0035 0.165806,-0.0035 0.165805,-0.0035 0.165806,-0.0035 0.165806,-0.0035 0.165805,-0.0071 0.165806,-0.0035 0.165805,-0.0035 0.165806,-0.0035 0.165805,-0.0035 0.165806,-0.0035 0.165805,-0.0035 0.162278,-0.0035 0.165806,-0.0035 0.165805,-0.0035 0.165806,-0.0035 h 0.165805 l 0.165806,-0.0035 0.165805,-0.0035 0.165806,-0.0035 0.165806,-0.0035 0.165805,-0.0035 0.165806,-0.0035 0.165805,-0.0035 0.162278,-0.0035 0.165806,-0.0035 h 0.165805 l 0.165806,-0.0035 0.165805,-0.0035 0.165806,-0.0035 0.165805,-0.0035 0.165806,-0.0035 0.165805,-0.0035 0.165806,-0.0035 0.165806,-0.0035 0.165805,-0.0035 h 0.162278 l 0.165805,-0.0035 0.165806,-0.0035 0.165805,-0.0035 0.165806,-0.0035 0.165806,-0.0035 0.165805,-0.0035 0.165806,-0.0035 0.165805,-0.0035 0.165806,-0.0035 h 0.165805 l 0.162278,-0.0035 0.165806,-0.0035 0.165805,-0.0035 0.165806,-0.0035 0.165805,-0.0035 0.165806,-0.0035 0.165805,-0.0035 0.165806,-0.0035 H 99.2631 l 0.165805,-0.0035 0.165806,-0.0035 0.165805,-0.0035 0.162278,-0.0035 0.165806,-0.0035 0.16581,-0.0035 0.1658,-0.0035 0.16581,-0.0035 0.1658,-0.0035 0.16581,-0.0035 0.1658,-0.0035 h 0.16581 l 0.1658,-0.0035 0.16581,-0.0035 0.16581,-0.0035 0.16227,-0.0035 0.16581,-0.0035 0.1658,-0.0035 0.16581,-0.0035 0.16581,-0.0035 0.1658,-0.0035 0.16581,-0.0035 0.1658,-0.0035 0.16581,-0.0035 0.1658,-0.0035 h 0.16581 l 0.1658,-0.0035 0.16228,-0.0035 0.16581,-0.0035 0.1658,-0.0035 0.16581,-0.0035 0.1658,-0.0035 0.16581,-0.0035 0.1658,-0.0035 0.16581,-0.0035 0.16581,-0.0035 0.1658,-0.0035 0.16581,-0.0035 h 0.1658 l 0.16228,-0.0035 0.16581,-0.0035 0.1658,-0.0035 0.16581,-0.0035 0.1658,-0.0035 0.16581,-0.0035 0.1658,-0.0035 0.16581,-0.0035 0.1658,-0.0035 0.16581,-0.0035 h 0.16581 l 0.1658,-0.0035 0.16228,-0.0035 0.1658,-0.0035 0.16581,-0.0035 0.16581,-0.0035 0.1658,-0.0035 0.16581,-0.0035 0.1658,-0.0035 0.16581,-0.0035 h 0.1658 l 0.16581,-0.0035 0.1658,-0.0035 0.16228,-0.0035 0.16581,-0.0035 0.1658,-0.0035 0.16581,-0.0035 0.1658,-0.0071 0.16581,-0.0035 0.16581,-0.0035 0.1658,-0.0035 0.16581,-0.0071 0.1658,-0.0035 0.16581,-0.0035 0.1658,-0.0035 0.16228,-0.0035 0.16581,-0.0035 0.1658,-0.0035 h 0.16581 l 0.1658,-0.0035 0.16581,-0.0035 0.1658,-0.0035 0.16581,-0.0035 0.16581,-0.0035 h 0.1658 l 0.16581,-0.0035 0.1658,-0.0035 0.16228,-0.0035 h 0.16581 l 0.1658,-0.0035 0.16581,-0.0035 0.1658,-0.0035 h 0.16581 l 0.1658,-0.0035 0.16581,-0.0035 0.1658,-0.0035 h 0.16581 l 0.16581,-0.0035 0.1658,-0.0035 0.16228,-0.0035 0.1658,-0.0035 0.16581,-0.0035 0.16581,-0.0035 0.1658,-0.0035 0.16581,-0.0035 h 0.1658 l 0.16581,-0.0035 0.1658,-0.0035 h 0.16581 l 0.1658,-0.0035 0.16581,-0.0035 0.16228,-0.0035 0.1658,-0.0035 h 0.16581 l 0.1658,-0.0035 h 0.16581 l 0.16581,-0.0035 h 0.1658 l 0.16581,-0.0035 h 0.1658 0.16581 0.1658 l 0.16581,-0.0035 h 0.16228 0.1658 0.16581 0.1658 0.16581 0.1658 0.16581 0.16581 0.1658 0.16581 0.1658 0.16228 0.16581 0.1658 0.16581 0.1658 0.16581 0.1658 0.16581 0.1658 0.16581 0.16581 0.1658 0.16228 0.1658 0.16581 0.16581 0.1658 0.16581 0.1658 0.16581 0.1658 0.16581 0.1658 0.16581 0.16228 0.1658 0.16581 0.1658 0.16581 0.16581 0.1658 0.16581 0.1658 0.16581 0.1658 0.16581 0.16228 0.1658 0.16581 0.1658 0.16581 0.1658 0.16581 0.16581 0.1658 0.16581 0.1658 0.16581 0.16228 0.1658 0.16581 0.1658 0.16581 0.1658 0.16581 0.1658 0.16581 0.16581 0.1658 0.16581 0.16227 0.16581 0.16581 0.1658 0.16581 0.1658 0.16581 0.1658 0.16581 0.1658 0.16581 0.16228 0.1658 0.16581 0.1658 0.16581 0.16581 0.1658 0.16581 0.1658 0.16581 0.1658 0.16581 0.16228 0.1658 0.16581 0.1658 0.16581 0.1658 0.16581 0.16581 0.1658 0.16581 0.1658 0.16581 0.16228 0.1658 0.16581 0.1658 0.16581 0.1658 0.16581 0.1658 0.16581 0.16581 0.1658 0.16581 0.16227 0.16581 0.16581 0.1658 0.16581 0.1658 0.16581 0.1658 0.16581 0.1658 0.16581 0.16581 0.16227 0.16581 0.1658 0.16581 0.16581 0.1658 0.16581 0.1658 0.16581 0.1658 0.16581 0.1658 0.16228 0.16581 0.1658 0.16581 0.1658 0.16581 0.16581 0.1658 0.16581 0.1658 0.16581 0.1658 0.16228 0.16581 0.1658 0.16581 0.1658 0.16581 0.1658 0.16581 0.16581 0.1658 0.16581 0.16227 0.16581 0.16581 0.1658 0.16581 0.1658 0.16581 0.1658 0.16581 0.1658 0.16581 0.16581 0.16227 0.16581 0.1658 0.16581 0.16581 0.1658 0.16581 0.1658 0.16581 0.1658 0.16581 0.1658 0.16228 0.16581 0.1658 0.16581 0.1658 0.16581 0.16581 0.1658 0.16581 0.1658 0.16581 0.1658 0.16228 0.16581 0.1658 0.16581 0.1658 0.16581 0.1658 0.16581 0.1658 0.16581 0.16581 0.1658 0.16228 0.1658 0.16581 0.16581 0.1658 0.16581 0.1658 0.16581 0.1658 0.16581 0.1658 0.16581 0.16228 0.1658 0.16581 0.1658 0.16581 0.16581 0.1658 0.16581 0.1658 0.16581 0.1658 0.16228 0.16581 0.1658 0.16581 0.1658 0.16581 0.1658 0.16581 0.16581 0.1658 0.16581 0.1658 0.16228 0.16581 0.1658 0.16581 0.1658 0.16581 0.1658 0.16581 0.1658 0.16581 0.16581 0.1658 0.16228 0.1658 0.16581 0.16581 0.1658 0.16581 0.1658 0.16581 0.1658 0.16581 0.1658 0.16581 0.16228 0.1658 0.16581 0.1658 0.16581 0.16581 0.1658 0.16581 0.1658 0.16581 0.1658 0.16581 0.16228 0.1658 0.16581 0.1658 0.16581 0.1658 0.16581 0.16581 0.1658 0.16581 0.1658 0.16581 0.16228 0.1658 0.16581 0.1658 0.16581 0.1658 0.16581 0.1658 0.16581 0.16581 0.1658 0.16228 0.1658 0.16581 0.16581 0.1658 0.16581 0.1658 0.16581 0.1658 0.16581 0.1658 0.16581 0.16228 0.1658 0.16581 0.1658 0.16581 0.16581 0.1658 0.16581 0.1658 0.16581 0.1658 0.16581 0.16228 0.1658 0.16581 0.1658 0.16581 0.1658 0.16581 0.16581 0.1658 0.16581 0.1658 0.16581 0.16228 0.1658 0.16581 0.1658 0.16581 0.1658 0.16581 0.1658 0.16581 0.16581 0.1658 0.16581 0.16227 0.16581 0.16581 0.1658 0.16581 0.1658 0.16581 0.1658 0.16581 0.1658 0.16581 0.16581 0.16227 0.16581 0.1658 0.16581 0.16581 0.1658 0.16581 0.1658 0.16581 0.1658 0.16581 0.1658 0.16228 0.16581 0.1658 0.16581 0.1658 0.16581 0.16581 0.1658 0.16581 0.1658 0.16581 0.16228 0.1658 0.16581 0.1658 0.16581 0.1658 0.16581 0.1658 0.16581 0.16581 0.1658 0.16581 0.16227 0.16581 0.16581 0.1658 0.16581 0.1658 0.16581 0.1658 0.16581 0.1658 0.16581 0.16581 0.16227 0.16581 0.1658 0.16581 0.16581 0.1658 0.16581 0.1658 0.16581 0.1658 0.16581 0.1658 0.16228 0.16581 0.1658 0.16581 0.1658 0.16581 0.16581 0.1658 0.16581 0.1658 0.16581 0.1658 0.16228 0.16581 0.1658 0.16581 0.1658 0.16581 0.1658 0.16581 0.16581 0.1658 0.16581 0.1658 0.16228 0.16581 0.1658 0.16581 0.1658 0.16581 0.1658 0.16581 0.1658 0.16581 0.16581 0.16227 0.16581 0.1658 0.16581 0.16581 0.1658 0.16581 0.1658 0.16581 0.1658 0.16581 0.1658 0.16228 0.16581 0.1658 0.16581 0.1658 0.16581 0.16581 0.1658 0.16581 0.1658 0.16581 0.1658 0.16228 0.16581 0.1658 0.16581 0.1658 0.16581 0.1658 0.16581 0.16581 0.1658 0.16581 0.1658 0.16228 0.16581 0.1658 0.16581 0.1658 0.16581 0.1658 0.16581 0.1658 0.16581 0.16581 0.1658 0.16228 0.1658 0.16581 0.16581 0.1658 0.16581 0.1658 0.16581 0.1658 0.16581 0.1658 0.16581 0.16228 0.1658 0.16581 0.1658 0.16581 0.1658 0.16581 0.16581 0.1658 0.16581 0.1658 0.16228 0.16581 0.1658 0.16581 0.1658 0.16581 0.1658 0.16581 0.1658 0.16581 0.16581 0.1658 0.16228 0.1658 0.16581 0.16581 0.1658 0.16581 0.1658 0.16581 0.1658 0.16581 0.1658 0.16581 0.16228 0.1658 0.16581 0.1658 0.16581 0.16581 0.1658 0.16581 0.1658 0.16581 0.1658 0.16581 0.16228 0.1658 0.16581 0.1658 0.16581 0.1658 0.16581 0.16581 0.1658 0.16581 0.1658 0.16581 0.16228 0.1658 0.16581 0.1658 0.16581 0.1658 0.16581 0.1658 0.16581 0.16581 0.1658 0.16581 0.16227 0.16581 0.16581 0.1658 0.16581 0.1658 0.16581 0.1658 0.16581 0.1658 0.16581 0.16228 0.1658 0.16581 0.1658 0.16581 0.16581 0.1658 0.16581 0.1658 0.16581 0.1658 0.16581 0.16228 0.1658 0.16581 0.1658 0.16581 0.1658 0.16581 0.16581 0.1658 0.16581 0.1658 0.16581 0.16228 0.1658 0.16581 0.1658 0.16581 0.1658 0.16581 0.1658 0.16581 0.16581 0.1658 0.16581 0.16227 0.16581 0.16581 0.1658 0.16581 0.1658 0.16581 0.1658 0.16581 0.1658 0.16581 0.16581 0.16227 0.16581 0.1658 0.16581 0.16581 0.1658 0.16581 0.1658 0.16581 0.1658 0.16581 0.1658 0.16228 0.16581 0.1658 0.16581 0.1658 0.16581 0.16581 0.1658" />
      <path
         id="path991"
         style="fill:#e36f47;fill-opacity:0.6;fill-rule:evenodd;stroke:#000000;stroke-width:0.282222;stroke-linecap:butt;stroke-linejoin:miter;stroke-miterlimit:10;stroke-dasharray:none;stroke-opacity:0.6"
         d="m 62.344906,111.87389 v 5.64445 h 5.644444 v -5.64445 z" />
      <path
         id="path993"
         style="fill:#e36f47;fill-opacity:0.6;fill-rule:evenodd;stroke:#000000;stroke-width:0.282222;stroke-linecap:butt;stroke-linejoin:miter;stroke-miterlimit:10;stroke-dasharray:none;stroke-opacity:0.6"
         d="m 70.621072,64.136005 v 5.644444 h 5.644445 v -5.644444 z" />
      <path
         id="path995"
         style="fill:#e36f47;fill-opacity:0.6;fill-rule:evenodd;stroke:#000000;stroke-width:0.282222;stroke-linecap:butt;stroke-linejoin:miter;stroke-miterlimit:10;stroke-dasharray:none;stroke-opacity:0.6"
         d="m 78.897239,38.418506 v 5.644444 h 5.644444 v -5.644444 z" />
      <path
         id="path997"
         style="fill:#e36f47;fill-opacity:0.6;fill-rule:evenodd;stroke:#000000;stroke-width:0.282222;stroke-linecap:butt;stroke-linejoin:miter;stroke-miterlimit:10;stroke-dasharray:none;stroke-opacity:0.6"
         d="m 87.173405,38.422033 v 5.644445 h 5.644445 v -5.644445 z" />
      <path
         id="path999"
         style="fill:#e36f47;fill-opacity:0.6;fill-rule:evenodd;stroke:#000000;stroke-width:0.282222;stroke-linecap:butt;stroke-linejoin:miter;stroke-miterlimit:10;stroke-dasharray:none;stroke-opacity:0.6"
         d="m 95.446044,38.256228 v 5.644444 h 5.644446 v -5.644444 z" />
      <path
         id="path1001"
         style="fill:#e36f47;fill-opacity:0.6;fill-rule:evenodd;stroke:#000000;stroke-width:0.282222;stroke-linecap:butt;stroke-linejoin:miter;stroke-miterlimit:10;stroke-dasharray:none;stroke-opacity:0.6"
         d="m 103.72221,38.09395 v 5.644444 h 5.64444 V 38.09395 Z" />
      <path
         id="path1003"
         style="fill:#e36f47;fill-opacity:0.6;fill-rule:evenodd;stroke:#000000;stroke-width:0.282222;stroke-linecap:butt;stroke-linejoin:miter;stroke-miterlimit:10;stroke-dasharray:none;stroke-opacity:0.6"
         d="m 111.99838,37.931672 v 5.644445 h 5.64444 v -5.644445 z" />
      <path
         id="path1005"
         style="fill:#e36f47;fill-opacity:0.6;fill-rule:evenodd;stroke:#000000;stroke-width:0.282222;stroke-linecap:butt;stroke-linejoin:miter;stroke-miterlimit:10;stroke-dasharray:none;stroke-opacity:0.6"
         d="m 120.27454,37.864644 v 5.644445 h 5.64445 v -5.644445 z" />
      <path
         id="path1007"
         style="fill:#e36f47;fill-opacity:0.6;fill-rule:evenodd;stroke:#000000;stroke-width:0.282222;stroke-linecap:butt;stroke-linejoin:miter;stroke-miterlimit:10;stroke-dasharray:none;stroke-opacity:0.6"
         d="m 128.54718,37.864644 v 5.644445 h 5.64445 v -5.644445 z" />
      <path
         id="path1009"
         style="fill:#e36f47;fill-opacity:0.6;fill-rule:evenodd;stroke:#000000;stroke-width:0.282222;stroke-linecap:butt;stroke-linejoin:miter;stroke-miterlimit:10;stroke-dasharray:none;stroke-opacity:0.6"
         d="m 136.82335,37.864644 v 5.644445 h 5.64444 v -5.644445 z" />
      <path
         id="path1011"
         style="fill:#e36f47;fill-opacity:0.6;fill-rule:evenodd;stroke:#000000;stroke-width:0.282222;stroke-linecap:butt;stroke-linejoin:miter;stroke-miterlimit:10;stroke-dasharray:none;stroke-opacity:0.6"
         d="m 145.09952,37.864644 v 5.644445 h 5.64444 v -5.644445 z" />
      <path
         id="path1013"
         style="fill:#e36f47;fill-opacity:0.6;fill-rule:evenodd;stroke:#000000;stroke-width:0.282222;stroke-linecap:butt;stroke-linejoin:miter;stroke-miterlimit:10;stroke-dasharray:none;stroke-opacity:0.6"
         d="m 153.37568,37.864644 v 5.644445 h 5.64445 v -5.644445 z" />
      <path
         id="path1015"
         style="fill:#e36f47;fill-opacity:0.6;fill-rule:evenodd;stroke:#000000;stroke-width:0.282222;stroke-linecap:butt;stroke-linejoin:miter;stroke-miterlimit:10;stroke-dasharray:none;stroke-opacity:0.6"
         d="m 161.65185,37.864644 v 5.644445 h 5.64444 v -5.644445 z" />
      <path
         id="path1017"
         style="fill:#e36f47;fill-opacity:0.6;fill-rule:evenodd;stroke:#000000;stroke-width:0.282222;stroke-linecap:butt;stroke-linejoin:miter;stroke-miterlimit:10;stroke-dasharray:none;stroke-opacity:0.6"
         d="m 169.92449,37.864644 v 5.644445 h 5.64444 v -5.644445 z" />
      <path
         id="path1019"
         style="fill:#e36f47;fill-opacity:0.6;fill-rule:evenodd;stroke:#000000;stroke-width:0.282222;stroke-linecap:butt;stroke-linejoin:miter;stroke-miterlimit:10;stroke-dasharray:none;stroke-opacity:0.6"
         d="m 178.20065,37.864644 v 5.644445 h 5.64445 v -5.644445 z" />
      <path
         id="path1021"
         style="fill:#e36f47;fill-opacity:0.6;fill-rule:evenodd;stroke:#000000;stroke-width:0.282222;stroke-linecap:butt;stroke-linejoin:miter;stroke-miterlimit:10;stroke-dasharray:none;stroke-opacity:0.6"
         d="m 186.47682,37.864644 v 5.644445 h 5.64444 v -5.644445 z" />
      <path
         id="path1023"
         style="fill:#e36f47;fill-opacity:0.6;fill-rule:evenodd;stroke:#000000;stroke-width:0.282222;stroke-linecap:butt;stroke-linejoin:miter;stroke-miterlimit:10;stroke-dasharray:none;stroke-opacity:0.6"
         d="m 194.75299,37.864644 v 5.644445 h 5.64444 v -5.644445 z" />
      <path
         id="path1025"
         style="fill:#e36f47;fill-opacity:0.6;fill-rule:evenodd;stroke:#000000;stroke-width:0.282222;stroke-linecap:butt;stroke-linejoin:miter;stroke-miterlimit:10;stroke-dasharray:none;stroke-opacity:0.6"
         d="m 203.02563,37.864644 v 5.644445 h 5.64444 v -5.644445 z" />
      <path
         id="path1027"
         style="fill:#e36f47;fill-opacity:0.6;fill-rule:evenodd;stroke:#000000;stroke-width:0.282222;stroke-linecap:butt;stroke-linejoin:miter;stroke-miterlimit:10;stroke-dasharray:none;stroke-opacity:0.6"
         d="m 211.30179,37.864644 v 5.644445 h 5.64445 v -5.644445 z" />
      <path
         id="path1029"
         style="fill:#e36f47;fill-opacity:0.6;fill-rule:evenodd;stroke:#000000;stroke-width:0.282222;stroke-linecap:butt;stroke-linejoin:miter;stroke-miterlimit:10;stroke-dasharray:none;stroke-opacity:0.6"
         d="m 219.57796,37.864644 v 5.644445 h 5.64444 v -5.644445 z" />
      <path
         id="path1031"
         style="fill:none;stroke:#3ea44e;stroke-width:1.05833;stroke-linecap:butt;stroke-linejoin:miter;stroke-miterlimit:10;stroke-dasharray:none;stroke-opacity:1"
         d="m 65.167128,114.8972 0.165806,-0.4057 0.165805,-0.508 0.165806,-0.60677 0.165805,-0.74436 0.165806,-0.99131 0.165805,-1.64747 0.165806,-5.08353 0.165805,-0.12347 0.162278,-1.79564 0.165806,-1.54164 0.165805,-1.20297 0.165806,-0.977197 0.165805,-0.79375 0.165806,-0.493889 0.165806,-3.012722 0.165805,-1.845028 0.165806,-1.559277 0.165805,-0.917223 0.165806,-0.426861 0.165805,-0.356305 0.162278,-3.316111 0.165806,-3.171472 0.165805,-2.924528 0.165806,-2.532945 0.165805,-2.000249 0.165806,-1.651 0.165805,-1.421695 0.165806,-1.248833 0.165806,-1.128889 0.165805,-1.044222 0.165806,-0.9525 0.165805,-0.948972 0.162278,-0.906639 0.165806,-0.889 0.165805,-0.948972 0.165806,-0.9525 0.165805,-0.927806 0.165806,-0.871361 0.165805,-1.227667 0.165806,-1.49225 0.165805,-1.220611 0.165806,-0.790222 0.165805,-0.47625 0.162278,-0.310444 0.165806,-0.179917 0.165805,-0.09878 0.165806,-0.05292 0.165805,-0.01764 0.165806,-0.0035 h 0.165806 l 0.165805,-0.0035 h 0.165806 l 0.165805,0.0035 0.165806,0.0035 0.165805,0.0035 0.162278,0.0035 h 0.165806 l 0.165805,0.0035 h 0.165806 l 0.165805,0.0035 h 0.165806 0.165805 0.165806 0.165806 0.165805 0.165806 0.165805 l 0.162278,-0.0035 h 0.165805 0.165806 0.165806 0.165805 0.165806 l 0.165805,-0.0035 h 0.165806 0.165805 0.165806 0.165805 0.165806 0.162278 0.165805 0.165806 l 0.165805,-0.0035 h 0.165806 0.165806 0.165805 0.165806 0.165805 0.165806 0.165805 0.165806 0.162278 0.165805 0.165806 0.165805 0.165806 0.165805 0.165806 0.165805 0.165806 0.165806 0.165805 0.165806 0.162277 0.165806 0.165806 0.165805 0.165806 0.165805 0.165806 l 0.165805,-0.0035 h 0.165806 0.165805 0.165806 0.162278 0.165805 0.165806 0.165805 0.165806 0.165806 0.165805 0.165806 0.165805 0.165806 0.165805 0.165806 0.162278 0.165805 0.165806 0.165805 0.165806 0.165805 0.165806 0.165805 0.165806 0.165806 0.165805 0.165806 0.162277 0.165806 0.165806 0.165805 0.165806 0.165805 0.165806 0.165805 0.165806 0.165805 0.165806 0.165806 0.162277 0.165806 0.165805 0.165806 0.165806 0.165805 0.165806 0.165805 0.165806 0.165805 0.165806 0.165805 0.162278 0.165806 0.165805 0.165806 0.165805 0.165806 0.165805 0.165806 0.165806 0.165805 0.165806 0.165805 0.162278 0.165806 0.165805 0.165806 0.165805 0.165806 0.165805 0.165806 0.165805 0.165806 0.165806 0.165805 0.162278 0.165805 0.165806 0.165805 0.165806 0.165806 0.165805 0.165806 0.165805 0.165806 0.165805 0.162278 0.165806 0.165805 0.165806 0.165805 0.165806 0.165805 0.165806 0.165806 0.165805 0.165806 0.165805 0.162278 0.165806 0.16581 0.1658 0.16581 0.1658 0.16581 0.1658 0.16581 0.1658 0.16581 0.16581 0.16227 0.16581 0.1658 0.16581 0.16581 0.1658 0.16581 0.1658 0.16581 0.1658 0.16581 0.1658 0.16228 0.16581 0.1658 0.16581 0.1658 0.16581 0.1658 0.16581 0.16581 0.1658 0.16581 0.1658 0.16228 0.16581 0.1658 0.16581 0.1658 0.16581 0.1658 0.16581 0.1658 0.16581 0.16581 0.1658 0.16228 0.1658 0.16581 0.16581 0.1658 0.16581 0.1658 0.16581 0.1658 0.16581 0.1658 0.16228 0.16581 0.1658 0.16581 0.1658 0.16581 0.16581 0.1658 0.16581 0.1658 0.16581 0.1658 0.16228 0.16581 0.1658 0.16581 0.1658 0.16581 0.1658 0.16581 0.16581 0.1658 0.16581 0.1658 0.16228 0.16581 0.1658 0.16581 0.1658 0.16581 0.1658 0.16581 0.1658 0.16581 0.16581 0.1658 0.16228 0.1658 0.16581 0.16581 0.1658 0.16581 0.1658 0.16581 0.1658 0.16581 0.1658 0.16581 0.16228 0.1658 0.16581 0.1658 0.16581 0.16581 0.1658 0.16581 0.1658 0.16581 0.1658 0.16581 0.16228 0.1658 0.16581 0.1658 0.16581 0.1658 0.16581 0.16581 0.1658 0.16581 0.1658 0.16228 0.16581 0.1658 0.16581 0.1658 0.16581 0.1658 0.16581 0.1658 0.16581 0.16581 0.1658 0.16228 0.1658 0.16581 0.16581 0.1658 0.16581 0.1658 0.16581 0.1658 0.16581 0.1658 0.16581 0.16228 0.1658 0.16581 0.1658 0.16581 0.16581 0.1658 0.16581 0.1658 0.16581 0.1658 0.16581 0.16228 0.1658 0.16581 0.1658 0.16581 0.1658 0.16581 0.16581 0.1658 0.16581 0.1658 0.16581 0.16228 0.1658 0.16581 0.1658 0.16581 0.1658 0.16581 0.1658 0.16581 0.16581 0.1658 0.16581 0.16227 0.16581 0.16581 0.1658 0.16581 0.1658 0.16581 0.1658 0.16581 0.1658 0.16581 0.16228 0.1658 0.16581 0.1658 0.16581 0.16581 0.1658 0.16581 0.1658 0.16581 0.1658 0.16581 0.16228 0.1658 0.16581 0.1658 0.16581 0.1658 0.16581 0.16581 0.1658 0.16581 0.1658 0.16581 0.16228 0.1658 0.16581 0.1658 0.16581 0.1658 0.16581 0.1658 0.16581 0.16581 0.1658 0.16581 0.16227 0.16581 0.16581 0.1658 0.16581 0.1658 0.16581 0.1658 0.16581 0.1658 0.16581 0.16581 0.16227 0.16581 0.1658 0.16581 0.16581 0.1658 0.16581 0.1658 0.16581 0.1658 0.16581 0.1658 0.16228 0.16581 0.1658 0.16581 0.1658 0.16581 0.16581 0.1658 0.16581 0.1658 0.16581 0.1658 0.16228 0.16581 0.1658 0.16581 0.1658 0.16581 0.1658 0.16581 0.16581 0.1658 0.16581 0.16227 0.16581 0.16581 0.1658 0.16581 0.1658 0.16581 0.1658 0.16581 0.1658 0.16581 0.16581 0.16227 0.16581 0.1658 0.16581 0.16581 0.1658 0.16581 0.1658 0.16581 0.1658 0.16581 0.1658 0.16228 0.16581 0.1658 0.16581 0.1658 0.16581 0.16581 0.1658 0.16581 0.1658 0.16581 0.1658 0.16228 0.16581 0.1658 0.16581 0.1658 0.16581 0.1658 0.16581 0.1658 0.16581 0.16581 0.1658 0.16228 0.1658 0.16581 0.16581 0.1658 0.16581 0.1658 0.16581 0.1658 0.16581 0.1658 0.16581 0.16228 0.1658 0.16581 0.1658 0.16581 0.16581 0.1658 0.16581 0.1658 0.16581 0.1658 0.16228 0.16581 0.1658 0.16581 0.1658 0.16581 0.1658 0.16581 0.16581 0.1658 0.16581 0.1658 0.16228 0.16581 0.1658 0.16581 0.1658 0.16581 0.1658 0.16581 0.1658 0.16581 0.16581 0.1658 0.16228 0.1658 0.16581 0.16581 0.1658 0.16581 0.1658 0.16581 0.1658 0.16581 0.1658 0.16581 0.16228 0.1658 0.16581 0.1658 0.16581 0.16581 0.1658 0.16581 0.1658 0.16581 0.1658 0.16581 0.16228 0.1658 0.16581 0.1658 0.16581 0.1658 0.16581 0.16581 0.1658 0.16581 0.1658 0.16581 0.16228 0.1658 0.16581 0.1658 0.16581 0.1658 0.16581 0.1658 0.16581 0.16581 0.1658 0.16228 0.1658 0.16581 0.16581 0.1658 0.16581 0.1658 0.16581 0.1658 0.16581 0.1658 0.16581 0.16228 0.1658 0.16581 0.1658 0.16581 0.16581 0.1658 0.16581 0.1658 0.16581 0.1658 0.16581 0.16228 0.1658 0.16581 0.1658 l 0.16581,-0.0035 h 0.1658 0.16581 0.16581 0.1658 0.16581 0.1658 0.16581 0.16228 0.1658 0.16581 0.1658 0.16581 0.1658 0.16581 0.1658 0.16581 0.16581 0.1658 0.16581 0.16227 0.16581 0.16581 0.1658 0.16581 0.1658 0.16581 0.1658 0.16581 0.1658 0.16581 0.16581 0.16227 0.16581 0.1658 0.16581 0.16581 0.1658 0.16581 0.1658 0.16581 0.1658 0.16581 0.1658 0.16228 0.16581 0.1658 0.16581 0.1658 0.16581 0.16581 0.1658 0.16581 0.1658 0.16581 0.16228 0.1658 0.16581 0.1658 0.16581 0.1658 0.16581 0.1658 0.16581 0.16581 0.1658 0.16581 0.16227 0.16581 0.16581 0.1658 0.16581 0.1658 0.16581 0.1658 0.16581 0.1658 0.16581 0.16581 0.16227 0.16581 0.1658 0.16581 0.16581 0.1658 0.16581 0.1658 0.16581 0.1658 0.16581 0.1658 0.16228 0.16581 0.1658 0.16581 0.1658 0.16581 0.16581 0.1658 0.16581 0.1658 0.16581 0.1658 0.16228 0.16581 0.1658 0.16581 0.1658 0.16581 0.1658 0.16581 0.16581 0.1658 0.16581 0.1658 0.16228 0.16581 0.1658 0.16581 0.1658 0.16581 0.1658 0.16581 0.1658 0.16581 0.16581 0.16227 0.16581 0.1658 0.16581 0.16581 0.1658 0.16581 0.1658 0.16581 0.1658 0.16581 0.1658 0.16228 0.16581 0.1658 0.16581 0.1658 0.16581 0.16581 0.1658 0.16581 0.1658 0.16581 0.1658 0.16228 0.16581 0.1658 0.16581 0.1658 0.16581 0.1658 0.16581 0.16581 0.1658 0.16581 0.1658 0.16228 0.16581 0.1658 0.16581 0.1658 0.16581 0.1658 0.16581 0.1658 0.16581 0.16581 0.1658 0.16228 0.1658 0.16581 0.16581 0.1658 0.16581 0.1658 0.16581 0.1658 0.16581 0.1658 0.16581 0.16228 0.1658 0.16581 0.1658 0.16581 0.1658 0.16581 0.16581 0.1658 0.16581 0.1658 0.16228 0.16581 0.1658 0.16581 0.1658 0.16581 0.1658 0.16581 0.1658 0.16581 0.16581 0.1658 0.16228 0.1658 0.16581 0.16581 0.1658 0.16581 0.1658 0.16581 0.1658 0.16581 0.1658 0.16581 0.16228 0.1658 0.16581 0.1658 0.16581 0.16581 0.1658 0.16581 0.1658 0.16581 0.1658 0.16581 0.16228 0.1658 0.16581 0.1658 0.16581 0.1658 0.16581 0.16581 0.1658 0.16581 0.1658 0.16581 0.16228 0.1658 0.16581 0.1658 0.16581 0.1658 0.16581 0.1658 0.16581 0.16581 0.1658 0.16581 0.16227 0.16581 0.16581 0.1658 0.16581 0.1658 0.16581 0.1658 0.16581 0.1658 0.16581 0.16228 0.1658 0.16581 0.1658 0.16581 0.16581 0.1658 0.16581 0.1658 0.16581 0.1658 0.16581 0.16228 0.1658 0.16581 0.1658 0.16581 0.1658 0.16581 0.16581 0.1658 0.16581 0.1658 0.16581 0.16228 0.1658 0.16581 0.1658 0.16581 0.1658 0.16581 0.1658 0.16581 0.16581 0.1658 0.16581 0.16227 0.16581 0.16581 0.1658 0.16581 0.1658 0.16581 0.1658 0.16581 0.1658 0.16581 0.16581 0.16227 0.16581 0.1658 0.16581 0.16581 0.1658 0.16581 0.1658 0.16581 0.1658 0.16581 0.1658 0.16228 0.16581 0.1658 0.16581 0.1658 0.16581 0.16581 0.1658" />
      <path
         id="path1033"
         style="fill:#3ea44e;fill-opacity:0.6;fill-rule:evenodd;stroke:#000000;stroke-width:0.282222;stroke-linecap:butt;stroke-linejoin:miter;stroke-miterlimit:10;stroke-dasharray:none;stroke-opacity:0.6"
         d="m 65.167128,112.07498 -0.663222,1.90852 -2.021417,0.0423 1.612195,1.22414 -0.585611,1.93322 1.658055,-1.15711 1.661583,1.15711 -0.589139,-1.93322 1.612195,-1.22414 -2.021417,-0.0423 z" />
      <path
         id="path1035"
         style="fill:#3ea44e;fill-opacity:0.6;fill-rule:evenodd;stroke:#000000;stroke-width:0.282222;stroke-linecap:butt;stroke-linejoin:miter;stroke-miterlimit:10;stroke-dasharray:none;stroke-opacity:0.6"
         d="m 73.443295,53.33395 -0.663223,1.905 -2.021416,0.04233 1.612194,1.224139 -0.585611,1.933222 1.658056,-1.153583 1.658055,1.153583 -0.585611,-1.933222 1.612194,-1.224139 -2.021416,-0.04233 z" />
      <path
         id="path1037"
         style="fill:#3ea44e;fill-opacity:0.6;fill-rule:evenodd;stroke:#000000;stroke-width:0.282222;stroke-linecap:butt;stroke-linejoin:miter;stroke-miterlimit:10;stroke-dasharray:none;stroke-opacity:0.6"
         d="m 81.719461,53.341005 -0.663222,1.905 -2.021417,0.04233 1.612195,1.224138 -0.589139,1.933223 1.661583,-1.153584 1.658056,1.153584 -0.585612,-1.933223 1.612195,-1.224138 -2.021417,-0.04233 z" />
      <path
         id="path1039"
         style="fill:#3ea44e;fill-opacity:0.6;fill-rule:evenodd;stroke:#000000;stroke-width:0.282222;stroke-linecap:butt;stroke-linejoin:miter;stroke-miterlimit:10;stroke-dasharray:none;stroke-opacity:0.6"
         d="m 89.995628,53.337477 -0.663223,1.908528 -2.021416,0.04233 1.612194,1.224138 -0.589139,1.933223 1.661584,-1.157112 1.658055,1.157112 -0.585611,-1.933223 1.608667,-1.224138 -2.017889,-0.04233 z" />
      <path
         id="path1041"
         style="fill:#3ea44e;fill-opacity:0.6;fill-rule:evenodd;stroke:#000000;stroke-width:0.282222;stroke-linecap:butt;stroke-linejoin:miter;stroke-miterlimit:10;stroke-dasharray:none;stroke-opacity:0.6"
         d="m 98.268266,53.337477 -0.663222,1.908528 -2.017889,0.04233 1.608667,1.224138 -0.585611,1.933223 1.658055,-1.157112 1.661584,1.157112 -0.589139,-1.933223 1.612199,-1.224138 -2.021422,-0.04233 z" />
      <path
         id="path1043"
         style="fill:#3ea44e;fill-opacity:0.6;fill-rule:evenodd;stroke:#000000;stroke-width:0.282222;stroke-linecap:butt;stroke-linejoin:miter;stroke-miterlimit:10;stroke-dasharray:none;stroke-opacity:0.6"
         d="m 106.54443,53.337477 -0.66322,1.908528 -2.02142,0.04233 1.6122,1.220611 -0.58561,1.933222 1.65805,-1.153584 1.65806,1.153584 -0.58561,-1.933222 1.61219,-1.220611 -2.02142,-0.04233 z" />
      <path
         id="path1045"
         style="fill:#3ea44e;fill-opacity:0.6;fill-rule:evenodd;stroke:#000000;stroke-width:0.282222;stroke-linecap:butt;stroke-linejoin:miter;stroke-miterlimit:10;stroke-dasharray:none;stroke-opacity:0.6"
         d="m 114.8206,53.337477 -0.66322,1.908528 -2.02142,0.04233 1.61219,1.220611 -0.58913,1.933222 1.66158,-1.153584 1.65805,1.153584 -0.58561,-1.933222 1.6122,-1.220611 -2.02142,-0.04233 z" />
      <path
         id="path1047"
         style="fill:#3ea44e;fill-opacity:0.6;fill-rule:evenodd;stroke:#000000;stroke-width:0.282222;stroke-linecap:butt;stroke-linejoin:miter;stroke-miterlimit:10;stroke-dasharray:none;stroke-opacity:0.6"
         d="m 123.09677,53.337477 -0.66323,1.908528 -2.02141,0.04233 1.61219,1.220611 -0.58914,1.933222 1.66159,-1.153584 1.65805,1.153584 -0.58561,-1.933222 1.60867,-1.220611 -2.01789,-0.04233 z" />
      <path
         id="path1049"
         style="fill:#3ea44e;fill-opacity:0.6;fill-rule:evenodd;stroke:#000000;stroke-width:0.282222;stroke-linecap:butt;stroke-linejoin:miter;stroke-miterlimit:10;stroke-dasharray:none;stroke-opacity:0.6"
         d="m 131.3694,53.337477 -0.66322,1.908528 -2.01789,0.04233 1.60867,1.220611 -0.58561,1.933222 1.65805,-1.153584 1.66159,1.153584 -0.58914,-1.933222 1.61219,-1.220611 -2.02141,-0.04233 z" />
      <path
         id="path1051"
         style="fill:#3ea44e;fill-opacity:0.6;fill-rule:evenodd;stroke:#000000;stroke-width:0.282222;stroke-linecap:butt;stroke-linejoin:miter;stroke-miterlimit:10;stroke-dasharray:none;stroke-opacity:0.6"
         d="m 139.64557,53.337477 -0.66322,1.908528 -2.02142,0.04233 1.6122,1.220611 -0.58561,1.933222 1.65805,-1.153584 1.66158,1.153584 -0.58913,-1.933222 1.61219,-1.220611 -2.02142,-0.04233 z" />
      <path
         id="path1053"
         style="fill:#3ea44e;fill-opacity:0.6;fill-rule:evenodd;stroke:#000000;stroke-width:0.282222;stroke-linecap:butt;stroke-linejoin:miter;stroke-miterlimit:10;stroke-dasharray:none;stroke-opacity:0.6"
         d="m 147.92174,53.337477 -0.66322,1.908528 -2.02142,0.04233 1.61219,1.220611 -0.58561,1.933222 1.65806,-1.153584 1.65805,1.153584 -0.58561,-1.933222 1.6122,-1.220611 -2.02142,-0.04233 z" />
      <path
         id="path1055"
         style="fill:#3ea44e;fill-opacity:0.6;fill-rule:evenodd;stroke:#000000;stroke-width:0.282222;stroke-linecap:butt;stroke-linejoin:miter;stroke-miterlimit:10;stroke-dasharray:none;stroke-opacity:0.6"
         d="m 156.1979,53.337477 -0.66322,1.908528 -2.02141,0.04233 1.61219,1.220611 -0.58914,1.933222 1.66158,-1.153584 1.65806,1.153584 -0.58561,-1.933222 1.61219,-1.220611 -2.02141,-0.04233 z" />
      <path
         id="path1057"
         style="fill:#3ea44e;fill-opacity:0.6;fill-rule:evenodd;stroke:#000000;stroke-width:0.282222;stroke-linecap:butt;stroke-linejoin:miter;stroke-miterlimit:10;stroke-dasharray:none;stroke-opacity:0.6"
         d="m 164.47407,53.337477 -0.66322,1.905 -2.02142,0.04233 1.6122,1.224139 -0.58914,1.933222 1.66158,-1.153584 1.65806,1.153584 -0.58562,-1.933222 1.60867,-1.224139 -2.01789,-0.04233 z" />
      <path
         id="path1059"
         style="fill:#3ea44e;fill-opacity:0.6;fill-rule:evenodd;stroke:#000000;stroke-width:0.282222;stroke-linecap:butt;stroke-linejoin:miter;stroke-miterlimit:10;stroke-dasharray:none;stroke-opacity:0.6"
         d="m 172.74671,53.337477 -0.66322,1.905 -2.01789,0.04233 1.60866,1.224139 -0.58561,1.933222 1.65806,-1.153584 1.66158,1.153584 -0.58914,-1.933222 1.6122,-1.224139 -2.02142,-0.04233 z" />
      <path
         id="path1061"
         style="fill:#3ea44e;fill-opacity:0.6;fill-rule:evenodd;stroke:#000000;stroke-width:0.282222;stroke-linecap:butt;stroke-linejoin:miter;stroke-miterlimit:10;stroke-dasharray:none;stroke-opacity:0.6"
         d="m 181.02288,53.33395 -0.66323,1.908527 -2.02141,0.04233 1.61219,1.224139 -0.58561,1.933222 1.65806,-1.157111 1.65805,1.157111 -0.58561,-1.933222 1.61219,-1.224139 -2.02141,-0.04233 z" />
      <path
         id="path1063"
         style="fill:#3ea44e;fill-opacity:0.6;fill-rule:evenodd;stroke:#000000;stroke-width:0.282222;stroke-linecap:butt;stroke-linejoin:miter;stroke-miterlimit:10;stroke-dasharray:none;stroke-opacity:0.6"
         d="m 189.29904,53.33395 -0.66322,1.908527 -2.02142,0.04233 1.6122,1.224139 -0.58914,1.933222 1.66158,-1.157111 1.65806,1.157111 -0.58561,-1.933222 1.61219,-1.224139 -2.02142,-0.04233 z" />
      <path
         id="path1065"
         style="fill:#3ea44e;fill-opacity:0.6;fill-rule:evenodd;stroke:#000000;stroke-width:0.282222;stroke-linecap:butt;stroke-linejoin:miter;stroke-miterlimit:10;stroke-dasharray:none;stroke-opacity:0.6"
         d="m 197.57521,53.33395 -0.66322,1.908527 -2.02142,0.04233 1.61219,1.220611 -0.58913,1.933222 1.66158,-1.153583 1.65805,1.153583 -0.58561,-1.933222 1.60867,-1.220611 -2.01789,-0.04233 z" />
      <path
         id="path1067"
         style="fill:#3ea44e;fill-opacity:0.6;fill-rule:evenodd;stroke:#000000;stroke-width:0.282222;stroke-linecap:butt;stroke-linejoin:miter;stroke-miterlimit:10;stroke-dasharray:none;stroke-opacity:0.6"
         d="m 205.84785,53.33395 -0.66323,1.908527 -2.01788,0.04233 1.60866,1.220611 -0.58561,1.933222 1.65806,-1.153583 1.66158,1.153583 -0.58914,-1.933222 1.6122,-1.220611 -2.02142,-0.04233 z" />
      <path
         id="path1069"
         style="fill:#3ea44e;fill-opacity:0.6;fill-rule:evenodd;stroke:#000000;stroke-width:0.282222;stroke-linecap:butt;stroke-linejoin:miter;stroke-miterlimit:10;stroke-dasharray:none;stroke-opacity:0.6"
         d="m 214.12401,53.33395 -0.66322,1.908527 -2.02142,0.04233 1.6122,1.220611 -0.58561,1.933222 1.65805,-1.153583 1.66159,1.153583 -0.58914,-1.933222 1.61219,-1.220611 -2.02141,-0.04233 z" />
      <path
         id="path1071"
         style="fill:#3ea44e;fill-opacity:0.6;fill-rule:evenodd;stroke:#000000;stroke-width:0.282222;stroke-linecap:butt;stroke-linejoin:miter;stroke-miterlimit:10;stroke-dasharray:none;stroke-opacity:0.6"
         d="m 222.40018,53.33395 -0.66322,1.908527 -2.02142,0.04233 1.6122,1.220611 -0.58562,1.933222 1.65806,-1.153583 1.65806,1.153583 -0.58562,-1.933222 1.6122,-1.220611 -2.02142,-0.04233 z" />
      <g
         id="g1073"
         transform="matrix(0.35277777,0,0,-0.35277777,27.97024,140.10317)">
        <g
           clip-path="url(#clipPath1079)"
           id="g1075">
          <path
             id="path1081"
             style="fill:#ffffff;fill-opacity:1;fill-rule:evenodd;stroke:none"
             d="m 474.2,70.28 h 97.43 v 75.6 H 474.2" />
        </g>
      </g>
      <path
         id="path1083"
         style="fill:none;stroke:#000000;stroke-width:0.352778;stroke-linecap:butt;stroke-linejoin:miter;stroke-miterlimit:10;stroke-dasharray:none;stroke-opacity:1"
         d="M 195.25746,115.30995 H 229.6286 V 88.639949 h -34.37114 v 26.670001" />
      <path
         id="path1085"
         style="fill:none;stroke:#009afa;stroke-width:0.440972;stroke-linecap:butt;stroke-linejoin:miter;stroke-miterlimit:10;stroke-dasharray:none;stroke-opacity:1"
         d="m 197.20479,95.307449 h 11.68753" />
      <path
         id="path1087"
         style="fill:#009afa;fill-opacity:0.6;fill-rule:evenodd;stroke:#000000;stroke-width:0.282222;stroke-linecap:butt;stroke-linejoin:miter;stroke-miterlimit:10;stroke-dasharray:none;stroke-opacity:0.6"
         d="m 203.04679,92.838004 c -1.36172,0 -2.46944,1.107723 -2.46944,2.469445 0,1.36525 1.10772,2.469444 2.46944,2.469444 1.36525,0 2.46945,-1.104194 2.46945,-2.469444 0,-1.361722 -1.1042,-2.469445 -2.46945,-2.469445 z" />
      <path
         id="path1089"
         style="fill:#000000;fill-opacity:1;fill-rule:evenodd;stroke:none;stroke-width:0.352778"
         d="m 212.30015,93.688199 1.31939,3.52425 h -0.49742 l -0.8008,-2.113139 -0.98425,2.113139 h -0.49742 l 1.25236,-2.741084 -0.1905,-0.504472 c 0,0 -0.11994,-0.321028 -0.39158,-0.321028 h -0.24694 v -0.402166 l 0.29986,0.0035 c 0,0 0.57502,0.0071 0.7373,0.440972 z" />
      <path
         id="path1091"
         style="fill:#000000;fill-opacity:1;fill-rule:evenodd;stroke:none;stroke-width:0.352778"
         d="m 214.32862,94.841782 h 3.27025 v 0.426861 h -3.27025 v -0.426861 m 0,1.040695 h 3.27025 v 0.433916 h -3.27025 z" />
      <path
         id="path1093"
         style="fill:#000000;fill-opacity:1;fill-rule:evenodd;stroke:none;stroke-width:0.352778"
         d="m 218.66779,93.402449 h 0.51506 v 3.376083 h 1.85561 v 0.433917 h -2.37067 z" />
      <path
         id="path1095"
         style="fill:none;stroke:#e36f47;stroke-width:0.440972;stroke-linecap:butt;stroke-linejoin:miter;stroke-miterlimit:10;stroke-dasharray:none;stroke-opacity:1"
         d="m 197.20479,101.97495 h 11.68753" />
      <path
         id="path1097"
         style="fill:#e36f47;fill-opacity:0.6;fill-rule:evenodd;stroke:#000000;stroke-width:0.282222;stroke-linecap:butt;stroke-linejoin:miter;stroke-miterlimit:10;stroke-dasharray:none;stroke-opacity:0.6"
         d="m 200.22457,99.152726 v 5.644444 h 5.64444 v -5.644444 z" />
      <path
         id="path1099"
         style="fill:#000000;fill-opacity:1;fill-rule:evenodd;stroke:none;stroke-width:0.352778"
         d="m 212.30015,100.3557 1.31939,3.52425 h -0.49742 l -0.8008,-2.11314 -0.98425,2.11314 h -0.49742 l 1.25236,-2.74108 -0.1905,-0.50448 c 0,0 -0.11994,-0.32102 -0.39158,-0.32102 h -0.24694 v -0.402171 l 0.29986,0.0035 c 0,0 0.57502,0.0071 0.7373,0.440971 z" />
      <path
         id="path1101"
         style="fill:#000000;fill-opacity:1;fill-rule:evenodd;stroke:none;stroke-width:0.352778"
         d="m 214.32862,101.50928 h 3.27025 v 0.42686 h -3.27025 v -0.42686 m 0,1.0407 h 3.27025 v 0.43391 h -3.27025 z" />
      <path
         id="path1103"
         style="fill:#000000;fill-opacity:1;fill-rule:evenodd;stroke:none;stroke-width:0.352778"
         d="m 218.66779,100.06995 h 0.51506 v 3.37608 h 1.85561 v 0.43392 h -2.37067 z" />
      <path
         id="path1105"
         style="fill:#000000;fill-opacity:1;fill-rule:evenodd;stroke:none;stroke-width:0.352778"
         d="m 222.39312,100.06995 h 0.43392 l -1.32644,4.29683 h -0.43392 z" />
      <path
         id="path1107"
         style="fill:#000000;fill-opacity:1;fill-rule:evenodd;stroke:none;stroke-width:0.352778"
         d="m 223.82893,103.44603 h 1.79917 v 0.43392 h -2.42006 v -0.43392 c 0,0 0.29633,-0.30339 0.80081,-0.81139 0,0 0.508,-0.51505 0.63852,-0.66322 0,0 0.24695,-0.27869 0.3422,-0.46919 0,0 0.1023,-0.19403 0.1023,-0.381 0,0 0,-0.30339 -0.21519,-0.49389 0,0 -0.21167,-0.1905 -0.55386,-0.1905 0,0 -0.24342,0 -0.51506,0.0847 0,0 -0.26811,0.0847 -0.5715,0.254 v -0.52211 c 0,0 0.31045,-0.12347 0.58209,-0.18697 0,0 0.26811,-0.0635 0.49389,-0.0635 0,0 0.59266,0 0.94544,0.29633 0,0 0.34925,0.29634 0.34925,0.79023 0,0 0,0.23636 -0.0882,0.44802 0,0 -0.0882,0.20814 -0.3175,0.49389 0,0 -0.0635,0.0741 -0.4057,0.42686 0,0 -0.34219,0.35278 -0.96661,0.98778 z" />
      <path
         id="path1109"
         style="fill:none;stroke:#3ea44e;stroke-width:0.440972;stroke-linecap:butt;stroke-linejoin:miter;stroke-miterlimit:10;stroke-dasharray:none;stroke-opacity:1"
         d="m 197.20479,108.64245 h 11.68753" />
      <path
         id="path1111"
         style="fill:#3ea44e;fill-opacity:0.6;fill-rule:evenodd;stroke:#000000;stroke-width:0.282222;stroke-linecap:butt;stroke-linejoin:miter;stroke-miterlimit:10;stroke-dasharray:none;stroke-opacity:0.6"
         d="m 203.04679,105.82023 -0.66322,1.90852 -2.01789,0.0423 1.60867,1.22414 -0.58561,1.93322 1.65805,-1.15711 1.66158,1.15711 -0.58913,-1.93322 1.61219,-1.22414 -2.02142,-0.0423 z" />
      <path
         id="path1113"
         style="fill:#000000;fill-opacity:1;fill-rule:evenodd;stroke:none;stroke-width:0.352778"
         d="m 212.30015,107.0232 1.31939,3.52425 h -0.49742 l -0.8008,-2.11314 -0.98425,2.11314 h -0.49742 l 1.25236,-2.74108 -0.1905,-0.50448 c 0,0 -0.11994,-0.32102 -0.39158,-0.32102 h -0.24694 v -0.40217 l 0.29986,0.004 c 0,0 0.57502,0.007 0.7373,0.44097 z" />
      <path
         id="path1115"
         style="fill:#000000;fill-opacity:1;fill-rule:evenodd;stroke:none;stroke-width:0.352778"
         d="m 214.32862,108.17678 h 3.27025 v 0.42686 h -3.27025 v -0.42686 m 0,1.0407 h 3.27025 v 0.43391 h -3.27025 z" />
      <path
         id="path1117"
         style="fill:#000000;fill-opacity:1;fill-rule:evenodd;stroke:none;stroke-width:0.352778"
         d="m 218.66779,106.73745 h 0.51506 v 3.37608 h 1.85561 v 0.43392 h -2.37067 z" />
      <path
         id="path1119"
         style="fill:#000000;fill-opacity:1;fill-rule:evenodd;stroke:none;stroke-width:0.352778"
         d="m 222.39312,106.73745 h 0.43392 l -1.32644,4.29683 h -0.43392 z" />
      <path
         id="path1121"
         style="fill:#000000;fill-opacity:1;fill-rule:evenodd;stroke:none;stroke-width:0.352778"
         d="m 224.94724,108.49428 c 0,0 0.37041,0.0776 0.57855,0.32809 0,0 0.20814,0.25047 0.20814,0.61736 0,0 0,0.56444 -0.38806,0.87489 0,0 -0.38805,0.30691 -1.10419,0.30691 0,0 -0.23989,0 -0.49389,-0.0459 0,0 -0.254,-0.0459 -0.52211,-0.14111 v -0.49742 c 0,0 0.21519,0.12348 0.46919,0.18698 0,0 0.254,0.0635 0.5327,0.0635 0,0 0.48683,0 0.7373,-0.1905 0,0 0.254,-0.1905 0.254,-0.55739 0,0 0,-0.33514 -0.23636,-0.52564 0,0 -0.23283,-0.1905 -0.65616,-0.1905 h -0.4445 v -0.42334 h 0.46566 c 0,0 0.381,0 0.58209,-0.15169 0,0 0.20108,-0.15169 0.20108,-0.43744 0,0 0,-0.29281 -0.20814,-0.44803 0,0 -0.20814,-0.15875 -0.59619,-0.15875 0,0 -0.21167,0 -0.45156,0.0459 0,0 -0.24342,0.0459 -0.53622,0.14111 v -0.45861 c 0,0 0.29633,-0.0811 0.55033,-0.12347 0,0 0.25753,-0.0388 0.48331,-0.0388 0,0 0.58914,0 0.93133,0.26811 0,0 0.3422,0.26459 0.3422,0.71967 0,0 0,0.31397 -0.18345,0.53622 0,0 -0.17992,0.2152 -0.51505,0.29986 z" />
    </g>
  </g>
</svg>
